<svg width="56" height="56" viewBox="0 0 56 56" fill="none" xmlns="http://www.w3.org/2000/svg">
<path d="M30.8892 27.9186C30.8892 25.5853 31.8424 22.6867 33.2612 19.7272C30.2906 15.0108 26.9043 10.7157 24.172 8C18.1034 14.1296 8 29.0104 8 37.9C8 46.7896 15.2381 54 24.172 54C32.5518 54 39.4463 47.6542 40.261 39.5239C34.9017 38.3545 30.8892 33.6048 30.8892 27.9186ZM31.0166 37.5342C31.0166 38.4875 30.2518 39.2634 29.3041 39.2634H26.5663V41.8571C26.5663 42.8159 25.8014 43.5863 24.8537 43.5863H23.1412C22.1935 43.5863 21.4287 42.8104 21.4287 41.8571V39.2634H19.0345C18.0923 39.2634 17.3219 38.4875 17.3219 37.5342V35.8051C17.3219 34.8518 18.0867 34.0759 19.0345 34.0759H21.4287V31.4822C21.4287 30.5289 22.1935 29.753 23.1412 29.753H24.8537C25.7959 29.753 26.5663 30.5289 26.5663 31.4822V34.0759H29.3041C30.2518 34.0759 31.0166 34.8518 31.0166 35.8051V37.5342Z" fill="#007EFF"/>
<path d="M38.7768 9.05811C34.5337 13.339 27.4702 23.7454 27.4702 29.959C27.4702 36.1726 32.5318 41.2089 38.7768 41.2089C45.0219 41.2089 50.0835 36.1726 50.0835 29.959C50.0835 23.7454 43.1899 13.4523 38.7768 9.05811Z" fill="#62AAFF"/>
</svg>
