<svg width="131" height="130" viewBox="0 0 131 130" fill="none" xmlns="http://www.w3.org/2000/svg">
<g clip-path="url(#clip0_134_21)">
<mask id="mask0_134_21" style="mask-type:luminance" maskUnits="userSpaceOnUse" x="0" y="0" width="131" height="130">
<path d="M130.5 0H0.5V130H130.5V0Z" fill="white"/>
</mask>
<g mask="url(#mask0_134_21)">
<g opacity="0.2" filter="url(#filter0_f_134_21)">
<path fill-rule="evenodd" clip-rule="evenodd" d="M35.1498 89.4377C28.3203 93.2741 26.5606 102.32 31.4538 108.437L32.5494 109.806C37.3678 115.83 44.6632 119.336 52.3769 119.336H77.4632C86.1266 119.336 94.1733 114.854 98.7332 107.487C103.343 100.04 99.0682 90.2822 90.4675 88.6229L54.9384 81.7684C51.9894 81.1996 48.9343 81.6945 46.3159 83.1654L35.1498 89.4377Z" fill="#595656"/>
</g>
<path d="M114.08 83.0017C114.064 83.243 114.048 83.5005 114.032 83.7418C114.016 83.9511 113.984 84.1763 113.951 84.3855C113.919 84.6268 113.887 84.8843 113.839 85.1256C113.791 85.351 113.758 85.5601 113.71 85.7854C113.662 86.0267 113.597 86.2681 113.533 86.5094C113.469 86.7346 113.404 86.9439 113.34 87.1691C113.26 87.4104 113.195 87.6519 113.099 87.8771C113.018 88.0863 112.938 88.3115 112.857 88.5207C112.761 88.7782 112.648 89.0195 112.535 89.277C112.439 89.4861 112.342 89.6953 112.246 89.9044C112.117 90.1459 111.988 90.4032 111.86 90.6447C111.747 90.8376 111.635 91.0469 111.522 91.24C111.345 91.5295 111.168 91.8192 110.975 92.1088C110.862 92.2858 110.75 92.4628 110.621 92.6397C110.396 92.9616 110.17 93.2834 109.929 93.5891C109.816 93.7339 109.704 93.8948 109.591 94.0396C109.543 94.104 109.478 94.1684 109.43 94.2489C109.173 94.5706 108.899 94.8764 108.626 95.1981C108.545 95.2786 108.481 95.3751 108.4 95.4556C108.062 95.8096 107.725 96.1797 107.371 96.5336C107.306 96.598 107.242 96.6624 107.177 96.7267C106.904 96.9842 106.614 97.2577 106.325 97.5151C106.099 97.7243 105.858 97.9334 105.617 98.1427C105.391 98.3357 105.166 98.5288 104.941 98.7058C104.683 98.915 104.426 99.1081 104.169 99.3172C103.927 99.4942 103.686 99.6873 103.429 99.8643C103.155 100.057 102.881 100.25 102.592 100.46C102.334 100.637 102.077 100.814 101.803 100.991C101.514 101.184 101.208 101.377 100.902 101.554C100.532 101.795 100.146 102.02 99.7599 102.246C99.0197 102.68 98.2635 103.082 97.475 103.485C97.2498 103.597 97.0245 103.71 96.7993 103.823C96.204 104.128 95.5765 104.402 94.9649 104.691C94.7558 104.788 94.5466 104.884 94.3375 104.981C93.533 105.335 92.7124 105.673 91.8595 105.995C91.7148 106.043 91.5699 106.107 91.4091 106.156C90.7011 106.413 89.9771 106.67 89.2529 106.912C88.9633 107.008 88.6576 107.105 88.3519 107.202C87.9496 107.33 87.5474 107.443 87.1451 107.572C86.8073 107.668 86.4694 107.765 86.1154 107.861C85.7131 107.974 85.2948 108.086 84.8765 108.183C84.5385 108.279 84.1846 108.36 83.8466 108.44C83.4283 108.537 83.01 108.633 82.5756 108.73C82.2215 108.811 81.8837 108.891 81.5296 108.955C81.0952 109.052 80.6607 109.132 80.2424 109.213C79.9045 109.277 79.5828 109.341 79.2448 109.406C78.3116 109.567 77.3784 109.728 76.4451 109.856C76.3164 109.872 76.1716 109.888 76.043 109.905C75.2223 110.017 74.4017 110.114 73.5811 110.194C73.2593 110.226 72.9536 110.259 72.6317 110.291C72.1008 110.339 71.5698 110.387 71.0388 110.42C70.7009 110.452 70.3631 110.468 70.0412 110.484C69.4942 110.516 68.931 110.548 68.384 110.564C68.0783 110.58 67.7565 110.596 67.4508 110.596C66.968 110.613 66.4853 110.613 66.0026 110.629C65.6647 110.629 65.3268 110.645 64.9889 110.645C64.474 110.645 63.9592 110.645 63.4443 110.629C63.1385 110.629 62.8328 110.629 62.5271 110.613C62.0605 110.596 61.5778 110.58 61.1111 110.564C60.7733 110.548 60.4515 110.548 60.1135 110.516C59.5987 110.484 59.0999 110.452 58.6011 110.42C58.3114 110.403 58.0218 110.387 57.7161 110.355C57.1047 110.307 56.4933 110.243 55.8818 110.178C55.6888 110.162 55.5117 110.146 55.3186 110.13C54.5302 110.033 53.7419 109.937 52.9534 109.824C52.8247 109.808 52.712 109.792 52.5833 109.76C51.9075 109.663 51.2317 109.551 50.556 109.438C50.2824 109.39 50.0089 109.341 49.7353 109.277C49.2204 109.181 48.7056 109.084 48.1907 108.987C47.9332 108.939 47.6597 108.875 47.4023 108.811C46.8392 108.698 46.292 108.569 45.729 108.44C45.4231 108.36 45.1174 108.279 44.8117 108.215C44.3129 108.086 43.8141 107.958 43.3153 107.813C43.0257 107.732 42.7522 107.652 42.4626 107.572C41.6742 107.346 40.9018 107.105 40.1294 106.847C39.9847 106.799 39.856 106.767 39.7111 106.719C38.8261 106.413 37.9573 106.091 37.0884 105.769C36.7345 105.641 36.3965 105.496 36.0426 105.351C35.7691 105.238 35.4955 105.126 35.2219 105.013C34.8357 104.852 34.4497 104.675 34.0635 104.498C33.806 104.386 33.5647 104.273 33.3072 104.16C32.8889 103.967 32.4866 103.758 32.0683 103.549C31.8591 103.452 31.65 103.34 31.4569 103.243C30.8455 102.921 30.2501 102.6 29.6708 102.262C19.904 96.6301 15.0288 89.2286 15.0609 81.8433L15.0288 91.9962C15.0126 99.3816 19.888 106.783 29.6387 112.415C30.218 112.753 30.8132 113.074 31.4246 113.396C31.6177 113.493 31.827 113.605 32.036 113.702C32.4384 113.911 32.8567 114.12 33.2751 114.313C33.5164 114.426 33.7739 114.539 34.0152 114.651C34.4013 114.828 34.7875 115.005 35.1737 115.166C35.4473 115.279 35.7207 115.391 35.9943 115.504C36.2518 115.617 36.5252 115.729 36.7827 115.826C36.8632 115.858 36.9597 115.89 37.0402 115.922C37.8929 116.26 38.7779 116.582 39.6629 116.872C39.8077 116.92 39.9365 116.968 40.0812 117C40.8536 117.258 41.6258 117.499 42.4143 117.724C42.5431 117.757 42.6718 117.805 42.8005 117.853C42.9453 117.902 43.1062 117.934 43.251 117.966C43.7498 118.111 44.2486 118.239 44.7474 118.368C45.0531 118.449 45.3588 118.529 45.6646 118.593C46.2116 118.722 46.7748 118.851 47.338 118.963C47.5471 119.012 47.7563 119.06 47.9655 119.108C48.0137 119.124 48.0781 119.124 48.1425 119.14C48.6413 119.237 49.1561 119.334 49.671 119.43C49.9446 119.478 50.2341 119.543 50.5077 119.591C51.1835 119.704 51.8593 119.816 52.535 119.913C52.6477 119.929 52.7604 119.945 52.873 119.961H52.889C53.6775 120.074 54.4659 120.17 55.2543 120.267C55.4635 120.283 55.6727 120.299 55.8818 120.331C56.4611 120.396 57.0565 120.46 57.6518 120.508C57.6679 120.508 57.6839 120.508 57.7 120.508C57.9897 120.524 58.2632 120.54 58.5527 120.572C59.0515 120.605 59.5503 120.653 60.0491 120.669C60.3871 120.685 60.7089 120.701 61.0467 120.717C61.5134 120.733 61.9961 120.766 62.4628 120.766C62.4949 120.766 62.5431 120.766 62.5754 120.766C62.8488 120.766 63.1063 120.766 63.3799 120.766C63.8948 120.766 64.4096 120.782 64.9245 120.782C65.2625 120.782 65.6003 120.766 65.9382 120.766C66.4209 120.766 66.9036 120.749 67.3864 120.733C67.4829 120.733 67.5634 120.733 67.6599 120.733C67.8852 120.733 68.1104 120.701 68.3356 120.701C68.8988 120.685 69.446 120.653 69.993 120.621C70.3308 120.605 70.6688 120.572 70.9906 120.556C71.5215 120.524 72.0526 120.476 72.5835 120.428C72.7766 120.411 72.9535 120.396 73.1466 120.379C73.2754 120.363 73.4041 120.347 73.5328 120.331C74.3535 120.251 75.174 120.154 75.9946 120.041C76.1233 120.025 76.2682 120.009 76.3969 119.993C77.3301 119.864 78.2634 119.704 79.1966 119.543C79.2771 119.527 79.3736 119.511 79.4541 119.494C79.6954 119.446 79.9529 119.398 80.1942 119.35C80.6286 119.269 81.063 119.189 81.4814 119.092C81.8353 119.012 82.1894 118.947 82.5272 118.867C82.9456 118.77 83.364 118.674 83.7823 118.577C84.1362 118.497 84.4742 118.4 84.8281 118.32C85.2465 118.207 85.6487 118.111 86.051 117.998C86.3889 117.902 86.7429 117.805 87.0808 117.708C87.4831 117.596 87.8853 117.467 88.2876 117.338C88.4645 117.29 88.6415 117.242 88.8185 117.177C88.9472 117.129 89.0598 117.081 89.1886 117.049C89.9127 116.807 90.6206 116.566 91.3286 116.292C91.4735 116.244 91.6343 116.18 91.7792 116.132C92.6158 115.81 93.4364 115.472 94.2409 115.118C94.4501 115.021 94.6592 114.925 94.8684 114.828C95.496 114.555 96.1074 114.265 96.7028 113.959C96.928 113.847 97.1532 113.734 97.3786 113.621C98.1508 113.219 98.9232 112.817 99.6633 112.382C99.8726 112.27 100.066 112.141 100.275 112.029C100.468 111.916 100.629 111.803 100.822 111.691C101.128 111.498 101.433 111.321 101.723 111.127C101.996 110.95 102.254 110.773 102.511 110.596C102.801 110.403 103.074 110.21 103.348 110.001C103.605 109.824 103.847 109.631 104.088 109.454C104.346 109.245 104.619 109.052 104.861 108.843C105.086 108.65 105.311 108.473 105.536 108.279C105.778 108.07 106.019 107.861 106.244 107.652C106.341 107.572 106.437 107.475 106.534 107.394C106.727 107.218 106.904 107.041 107.081 106.864C107.145 106.799 107.21 106.735 107.274 106.67C107.628 106.317 107.982 105.962 108.304 105.592C108.384 105.512 108.465 105.415 108.529 105.335C108.803 105.029 109.076 104.708 109.334 104.386C109.382 104.321 109.446 104.241 109.511 104.176C109.543 104.144 109.559 104.112 109.591 104.08C109.688 103.967 109.752 103.839 109.848 103.726C110.09 103.404 110.331 103.098 110.54 102.777C110.669 102.6 110.766 102.423 110.894 102.246C111.087 101.956 111.264 101.666 111.441 101.377C111.49 101.296 111.538 101.216 111.586 101.135C111.651 101.023 111.715 100.894 111.779 100.781C111.908 100.54 112.037 100.283 112.165 100.041C112.262 99.8321 112.359 99.6229 112.455 99.4138C112.568 99.1564 112.664 98.915 112.777 98.6576C112.825 98.545 112.873 98.4322 112.922 98.3196C112.954 98.2231 112.986 98.1105 113.018 98.0139C113.099 97.7726 113.179 97.5312 113.26 97.2899C113.324 97.0646 113.388 96.8555 113.453 96.6301C113.517 96.3888 113.581 96.1475 113.63 95.9061C113.662 95.7774 113.694 95.6487 113.726 95.5199C113.742 95.4394 113.758 95.343 113.774 95.2625C113.823 95.0211 113.855 94.7637 113.887 94.5223C113.919 94.3132 113.952 94.0879 113.968 93.8788C114 93.6373 114 93.38 114.016 93.1385C114.016 92.9938 114.048 92.849 114.048 92.7041C114.048 92.5594 114.048 92.4145 114.048 92.2697L114.08 82.1168C114.129 82.4226 114.096 82.7121 114.08 83.0017Z" fill="url(#paint0_linear_134_21)"/>
<path d="M99.5024 61.7151C118.907 72.9138 119.004 91.0637 99.7437 102.262C80.4675 113.461 49.1238 113.461 29.719 102.262C10.3303 91.0637 10.2176 72.9138 29.4937 61.6991C48.7699 50.5163 80.1136 50.5163 99.5024 61.7151Z" fill="url(#paint1_linear_134_21)"/>
<g opacity="0.32508" filter="url(#filter1_f_134_21)">
<path d="M56.9982 90.7342C69.5428 97.175 82.55 96.8696 86.0504 90.0518C89.5509 83.2341 82.2191 72.4859 69.6745 66.045C57.1298 59.6042 44.1227 59.9097 40.6223 66.7274C37.1218 73.5451 44.4536 84.2933 56.9982 90.7342Z" fill="#1F3899" fill-opacity="0.2"/>
</g>
<path d="M45.2939 44.5089L52.185 40.5229L55.1645 45.5546C55.1645 45.5546 48.5773 47.0392 48.4639 47.0732C48.3516 47.1072 45.2939 44.5089 45.2939 44.5089Z" fill="#9ABFFB"/>
<path d="M56.2503 13.6114L61.3871 10.3579C61.3871 10.3579 65.8933 8.66212 71.1105 12.1958C76.3276 15.7295 79.8262 20.8127 80.9079 22.666C81.9887 24.5194 84.9176 29.5737 85.4244 36.3784C85.989 43.9537 82.3668 46.2449 79.1597 48.0345C83.4723 51.756 87.9022 59.5343 90.3233 66.1792C92.7443 72.8242 93.6836 77.2207 93.6836 86.2284C91.4161 87.5028 82.545 96.7256 82.545 96.7256L78.9567 82.4277L64.1039 54.4347C64.1039 54.4347 71.0682 41.838 72.0367 39.1872C73.0051 36.5375 62.8089 22.9102 62.4524 22.3796C62.0959 21.8491 50.6079 17.1918 50.6079 17.1918L56.2503 13.6114Z" fill="url(#paint2_linear_134_21)"/>
<path d="M51.0101 17.1255C50.6314 17.2069 44.9677 19.5969 46.2148 28.6677C47.5719 38.5403 51.8989 43.2278 51.8989 43.2278C51.8989 43.2278 43.8244 41.5644 38.7145 51.8857C35.8639 56.4683 35.6694 66.0672 35.6694 66.0672L82.4895 96.6232C82.4895 96.6232 84.2213 74.6537 68.3289 54.0356C68.3289 54.0356 75.3945 53.0435 74.5524 42.6621C73.7104 32.2808 67.4075 23.9467 61.2887 19.4382C55.5987 15.3826 51.8786 16.9383 51.0101 17.1245V17.1255Z" fill="url(#paint3_linear_134_21)"/>
<path d="M102.697 54.7803C102.697 58.1114 99.9981 60.8105 96.667 60.8105C93.3359 60.8105 90.6367 58.1114 90.6367 54.7803C90.6367 51.4492 93.3359 48.75 96.667 48.75C99.9981 48.75 102.697 51.4492 102.697 54.7803Z" fill="url(#paint4_radial_134_21)"/>
<path d="M29.9531 61.0645C29.9531 63.2384 28.1915 65 26.0176 65C23.8436 65 22.082 63.2384 22.082 61.0645C22.082 58.8905 23.8436 57.1289 26.0176 57.1289C28.1915 57.1289 29.9531 58.8905 29.9531 61.0645Z" fill="url(#paint5_radial_134_21)"/>
<path d="M40.6172 26.4062C40.6172 28.0192 39.3102 29.3262 37.6973 29.3262C36.0843 29.3262 34.7773 28.0192 34.7773 26.4062C34.7773 24.7933 36.0843 23.4863 37.6973 23.4863C39.3102 23.4863 40.6172 24.7933 40.6172 26.4062Z" fill="url(#paint6_radial_134_21)"/>
</g>
</g>
<defs>
<filter id="filter0_f_134_21" x="-71.3298" y="-18.4614" width="271.946" height="237.798" filterUnits="userSpaceOnUse" color-interpolation-filters="sRGB">
<feFlood flood-opacity="0" result="BackgroundImageFix"/>
<feBlend mode="normal" in="SourceGraphic" in2="BackgroundImageFix" result="shape"/>
<feGaussianBlur stdDeviation="50" result="effect1_foregroundBlur_134_21"/>
</filter>
<filter id="filter1_f_134_21" x="25.7485" y="47.4072" width="75.1756" height="61.9648" filterUnits="userSpaceOnUse" color-interpolation-filters="sRGB">
<feFlood flood-opacity="0" result="BackgroundImageFix"/>
<feBlend mode="normal" in="SourceGraphic" in2="BackgroundImageFix" result="shape"/>
<feGaussianBlur stdDeviation="7" result="effect1_foregroundBlur_134_21"/>
</filter>
<linearGradient id="paint0_linear_134_21" x1="15.0784" y1="101.33" x2="114.126" y2="101.33" gradientUnits="userSpaceOnUse">
<stop stop-color="#75B9FE"/>
<stop offset="1" stop-color="#629EFF"/>
</linearGradient>
<linearGradient id="paint1_linear_134_21" x1="24.8255" y1="74.8796" x2="103.097" y2="82.4122" gradientUnits="userSpaceOnUse">
<stop stop-color="#448CFF"/>
<stop offset="1" stop-color="#81B1FF"/>
</linearGradient>
<linearGradient id="paint2_linear_134_21" x1="61.9085" y1="9.91128" x2="101.769" y2="94.5978" gradientUnits="userSpaceOnUse">
<stop stop-color="#2387FF"/>
<stop offset="0.167426" stop-color="#5394FF"/>
<stop offset="0.356463" stop-color="#488DFF"/>
<stop offset="0.72643" stop-color="#8EB9FF"/>
<stop offset="1" stop-color="#3481F9"/>
</linearGradient>
<linearGradient id="paint3_linear_134_21" x1="59.1072" y1="16.6772" x2="61.6248" y2="83.4625" gradientUnits="userSpaceOnUse">
<stop stop-color="#397DFF"/>
<stop offset="1" stop-color="#0070FF"/>
</linearGradient>
<radialGradient id="paint4_radial_134_21" cx="0" cy="0" r="1" gradientUnits="userSpaceOnUse" gradientTransform="translate(93.5363 54.7803) scale(7.9804)">
<stop stop-color="#F2F7FF"/>
<stop offset="1" stop-color="#99C0FF"/>
</radialGradient>
<radialGradient id="paint5_radial_134_21" cx="0" cy="0" r="1" gradientUnits="userSpaceOnUse" gradientTransform="translate(23.9744 61.0645) scale(5.20826)">
<stop stop-color="#F2F7FF"/>
<stop offset="1" stop-color="#99C0FF"/>
</radialGradient>
<radialGradient id="paint6_radial_134_21" cx="0" cy="0" r="1" gradientUnits="userSpaceOnUse" gradientTransform="translate(36.1813 26.4063) scale(3.86419)">
<stop stop-color="#F2F7FF"/>
<stop offset="1" stop-color="#99C0FF"/>
</radialGradient>
<clipPath id="clip0_134_21">
<rect width="130" height="130" fill="white" transform="translate(0.5)"/>
</clipPath>
</defs>
</svg>
