<svg width="120" height="107" viewBox="0 0 120 107" fill="none" xmlns="http://www.w3.org/2000/svg">
<rect x="63.5685" y="-3" width="80" height="80" rx="8" transform="rotate(45 63.5685 -3)" fill="#F3F8FE"/>
<path d="M30.6408 33.2088L47.2342 42.812C48.0378 43.2776 48.7047 43.9463 49.1682 44.7511C49.6317 45.5558 49.8754 46.4683 49.875 47.397V66.6032C49.8754 67.5319 49.6317 68.4443 49.1682 69.2491C48.7047 70.0538 48.0378 70.7226 47.2342 71.1882L30.6408 80.7905C29.8382 81.255 28.9273 81.4997 28 81.4997C27.0727 81.4997 26.1618 81.255 25.3593 80.7905L8.76575 71.1882C7.96225 70.7226 7.2953 70.0538 6.83181 69.2491C6.36831 68.4443 6.12456 67.5319 6.125 66.6032V47.397C6.12456 46.4683 6.36831 45.5558 6.83181 44.7511C7.2953 43.9463 7.96225 43.2776 8.76575 42.812L25.3593 33.2097C26.1618 32.7451 27.0727 32.5005 28 32.5005C28.9273 32.5005 29.8382 32.7451 30.6408 33.2097V33.2088ZM26.9937 36.0482L10.4002 45.6496C10.0941 45.8271 9.83993 46.0819 9.66332 46.3886C9.48671 46.6953 9.39383 47.043 9.394 47.397V66.6032C9.394 67.3242 9.77725 67.9901 10.4002 68.3506L26.9937 77.9528C27.2996 78.1298 27.6467 78.223 28 78.223C28.3533 78.223 28.7004 78.1298 29.0063 77.9528L45.5997 68.3506C45.9059 68.1731 46.1601 67.9182 46.3367 67.6115C46.5133 67.3048 46.6062 66.9571 46.606 66.6032V47.397C46.606 46.676 46.2227 46.0101 45.5997 45.6496L29.0063 36.0473C28.7004 35.8704 28.3533 35.7772 28 35.7772C27.6467 35.7772 27.2996 35.8704 26.9937 36.0473V36.0482Z" fill="#007EFF"/>
<path d="M20.5625 59.625V64H16.1875V59.625H20.5625ZM30.1875 54.375V64H25.8125V54.375H30.1875ZM39.8125 50V64H35.4375V50H39.8125Z" fill="#FFB900"/>
</svg>
