<svg width="56" height="56" viewBox="0 0 56 56" fill="none" xmlns="http://www.w3.org/2000/svg">
<path d="M10.5685 3H39.1166C41.2495 3 42.6851 4.43561 42.6851 6.56851V42.2536C42.6851 44.3865 41.2495 45.8221 39.1166 45.8221H10.5685C8.43561 45.8221 7 44.3865 7 42.2536V6.56851C7 4.43561 8.43561 3 10.5685 3Z" fill="#62AAFF"/>
<path d="M17.7052 11.1621H38.5831L49.6578 21.6215V49.6364C49.6578 51.4822 48.0581 52.9998 46.0893 52.9998H17.7052C15.7364 52.9998 14.1367 51.5232 14.1367 49.6364V14.5255C14.1367 12.6798 15.7364 11.1621 17.7052 11.1621Z" fill="#007EFF"/>
<path d="M40.7983 13.2544L49.6581 21.6219V23.7138H44.8591C43.3004 23.7138 41.9468 22.6064 41.7828 21.1297L40.7983 13.2544Z" fill="#0288D1"/>
<path d="M38.5425 11.1621L49.6582 21.6215H41.6598C39.9371 21.6215 38.5425 20.309 38.5425 18.7093V11.1621Z" fill="#3096FF"/>
<path d="M22.3409 29.1279H42.3163C42.9316 29.1279 43.4238 29.5791 43.4238 30.1534C43.4238 30.7276 42.9316 31.1788 42.3163 31.1788H22.3409C21.7256 31.1788 21.2334 30.7276 21.2334 30.1534C21.2334 29.6201 21.7256 29.1279 22.3409 29.1279ZM22.3409 35.4036H42.3163C42.9316 35.4036 43.4238 35.8548 43.4238 36.429C43.4238 37.0033 42.9316 37.4545 42.3163 37.4545H22.3409C21.7256 37.4545 21.2334 37.0033 21.2334 36.429C21.2334 35.8958 21.7256 35.4036 22.3409 35.4036ZM35.6715 41.6792H42.3163C42.9316 41.6792 43.4238 42.1304 43.4238 42.7047C43.4238 43.2789 42.9316 43.7301 42.3163 43.7301H35.6715C35.0563 43.7301 34.564 43.2789 34.564 42.7047C34.564 42.1304 35.0563 41.6792 35.6715 41.6792Z" fill="#0288D1"/>
<path d="M21.8887 26.8999H41.8642C42.4794 26.8999 42.9716 27.5196 42.9716 28.3084C42.9716 29.0971 42.4794 29.7168 41.8642 29.7168H21.8887C21.2735 29.7168 20.7812 29.0971 20.7812 28.3084C20.7812 27.5196 21.2735 26.8999 21.8887 26.8999ZM21.8887 35.5196H41.8642C42.4794 35.5196 42.9716 36.1393 42.9716 36.9281C42.9716 37.7168 42.4794 38.3365 41.8642 38.3365H21.8887C21.2735 38.3365 20.7812 37.7168 20.7812 36.9281C20.7812 36.1393 21.2735 35.5196 21.8887 35.5196ZM35.2194 44.083H41.8642C42.4794 44.083 42.9716 44.7027 42.9716 45.4915C42.9716 46.2802 42.4794 46.8999 41.8642 46.8999H35.2194C34.6041 46.8999 34.1119 46.2802 34.1119 45.4915C34.1119 44.7027 34.6041 44.083 35.2194 44.083Z" fill="white"/>
</svg>
