<svg width="56" height="56" viewBox="0 0 56 56" fill="none" xmlns="http://www.w3.org/2000/svg">
<g clip-path="url(#clip0_2_165)">
<mask id="mask0_2_165" style="mask-type:luminance" maskUnits="userSpaceOnUse" x="0" y="0" width="56" height="56">
<path d="M56 0H0V56H56V0Z" fill="white"/>
</mask>
<g mask="url(#mask0_2_165)">
<path d="M42.3206 17.5C42.3206 15.5109 41.5305 13.6032 40.1239 12.1967C38.7174 10.7902 36.8098 10 34.8206 10H42.3206C44.3098 10 46.2174 10.7902 47.6239 12.1967C49.0305 13.6032 49.8206 15.5109 49.8206 17.5V22.5H42.3206V17.5ZM38.5498 37.5C37.2686 37.4882 35.9995 37.2519 34.7998 36.8021C36.987 36.0337 38.8824 34.6065 40.2254 32.717C41.5684 30.8274 42.2931 28.5682 42.2998 26.25V25H49.7998V26.25C49.797 29.2328 48.6109 32.0927 46.5017 34.2019C44.3925 36.3111 41.5326 37.4972 38.5498 37.5ZM52.3206 60H44.7998C46.1259 60 47.3977 59.4732 48.3353 58.5355C49.273 57.5979 49.7998 56.3261 49.7998 55V52.5C49.7939 50.1282 49.2241 47.7918 48.1374 45.6836C47.0507 43.5754 45.4782 41.7558 43.5498 40.375L44.6852 37.7396C48.1991 38.2992 51.3987 40.0922 53.7104 42.7971C56.022 45.502 57.2946 48.9419 57.2998 52.5V55C57.2998 55.6566 57.1705 56.3068 56.9192 56.9134C56.6679 57.52 56.2996 58.0712 55.8353 58.5355C55.371 58.9998 54.8199 59.3681 54.2132 59.6194C53.6066 59.8707 52.9564 60 52.2998 60H52.3206Z" fill="#62AAFF"/>
<path d="M28.75 52.0624L34.8958 37.7395C38.4077 38.3014 41.6049 40.0953 43.9145 42.8C46.224 45.5047 47.4951 48.9433 47.4999 52.4999V54.9999C47.4999 55.6565 47.3706 56.3067 47.1194 56.9133C46.8681 57.52 46.4998 58.0712 46.0355 58.5354C45.5712 58.9997 45.02 59.368 44.4134 59.6193C43.8067 59.8706 43.1566 59.9999 42.5 59.9999H15.0208C14.3621 60.004 13.7091 59.8777 13.0994 59.6281C12.4897 59.3786 11.9355 59.0108 11.4688 58.5459C11.002 58.0811 10.6319 57.5284 10.3798 56.9198C10.1277 56.3112 9.99863 55.6587 10 54.9999V52.4999C10.0035 48.9424 11.2757 45.5028 13.5879 42.7992C15.9001 40.0956 19.1007 38.3053 22.6146 37.7499L28.75 52.0624ZM17.5208 26.25V25H40.0208V26.25C40.0208 29.2337 38.8355 32.0951 36.7258 34.2049C34.616 36.3147 31.7545 37.5 28.7708 37.5C25.7871 37.5 22.9257 36.3147 20.8159 34.2049C18.7061 32.0951 17.5208 29.2337 17.5208 26.25ZM32.5208 15H30.0208V12.5H27.5208V15H25.0208V17.5H27.5208V20H30.0208V17.5H32.5208V15ZM40.0208 17.5V22.5H17.5208V17.5C17.5208 15.5109 18.311 13.6032 19.7175 12.1967C21.124 10.7902 23.0317 10 25.0208 10H32.5208C34.5099 10 36.4176 10.7902 37.8241 12.1967C39.2306 13.6032 40.0208 15.5109 40.0208 17.5Z" fill="#007EFF"/>
</g>
</g>
<defs>
<clipPath id="clip0_2_165">
<rect width="56" height="56" fill="white"/>
</clipPath>
</defs>
</svg>
