<svg width="120" height="107" viewBox="0 0 120 107" fill="none" xmlns="http://www.w3.org/2000/svg">
<rect x="63.5685" y="-3" width="80" height="80" rx="8" transform="rotate(45 63.5685 -3)" fill="#F3F8FE"/>
<path d="M26.6685 51.1016C25.1191 51.1016 23.856 52.3647 23.856 53.914C23.856 54.8909 24.3911 55.8553 25.2498 56.4402C25.6667 56.7202 26.152 56.8695 26.6685 56.8695C27.1849 56.8695 27.6702 56.7202 28.0871 56.4402C29.0018 55.8242 29.4809 54.9469 29.4809 53.914C29.4809 52.3647 28.2178 51.1016 26.6685 51.1016ZM16.3582 51.1016C14.8089 51.1016 13.5458 52.3647 13.5458 53.914C13.5458 55.4633 14.8089 56.7264 16.3582 56.7264C17.9076 56.7264 19.1707 55.4633 19.1707 53.914C19.1707 52.3646 17.9075 51.1016 16.3582 51.1016ZM36.5555 51.1016C35.0062 51.1016 33.7431 52.3647 33.7431 53.914C33.7431 55.4633 35.0062 56.7264 36.5555 56.7264C38.1048 56.7264 39.368 55.4633 39.368 53.914C39.368 52.3646 38.1049 51.1016 36.5555 51.1016Z" fill="#007EFF"/>
<path d="M49.1493 53.5095C49.1805 51.0704 48.7137 48.6935 47.7555 46.4411C46.8346 44.2757 45.4845 42.2784 43.7485 40.5175C39.4426 36.1619 33.1769 33.6606 26.544 33.6606C13.9938 33.6606 3.78305 42.5086 3.78305 53.3851C3.78305 59.8064 7.37952 65.8544 13.4151 69.5877V75.5548C13.4151 76.4073 14.0062 77.0544 14.784 77.0544C14.9582 77.0544 15.1262 77.0046 15.2693 76.9673C15.3315 76.9486 15.4186 76.9237 15.4435 76.9237H15.4995L21.6782 72.8357C23.3769 73.1033 24.92 73.2339 26.3885 73.2339C38.9387 73.2339 49.1493 64.3859 49.1493 53.5095L49.1493 53.5095ZM26.544 69.5567C25.1067 69.5567 23.7752 69.4322 22.3565 69.1585L21.7094 69.034C21.5906 68.9967 21.4668 68.9778 21.3423 68.978C21.0436 68.978 20.7387 69.0838 20.3778 69.3078L20.3716 69.314L19.8365 69.7185L17.217 71.498V68.6794C17.217 68.0945 16.9494 67.3789 16.3396 67.0802L15.568 66.5576L15.5618 66.5513C10.5654 63.5211 7.58493 58.5993 7.58493 53.3851C7.58493 44.5371 16.1467 37.338 26.6685 37.338C37.1903 37.338 45.752 44.5371 45.752 53.3851C45.6275 62.3016 37.0098 69.5566 26.544 69.5566L26.544 69.5567Z" fill="#007EFF"/>
<path d="M49.6907 58.3255L49.3422 57.9771L49.1618 58.5557C48.8009 59.7379 48.4213 60.9637 47.824 62.0464L47.7991 62.0899V62.1397C47.7991 62.2517 47.8613 62.3699 47.9733 62.4197C48.3529 63.3344 48.5831 64.4482 48.5831 65.4251C48.5831 68.3308 46.8036 71.1619 44.0533 72.6491H44.0471L43.6426 72.8979C43.3502 73.0472 43.0205 73.3771 43.0205 73.8375V75.3557L41.5955 74.4784L41.3342 74.2171L41.3093 74.2046C41.0169 74.0615 40.8302 74.0615 40.5689 74.0615H40.544L40.1271 74.1922C39.4053 74.3104 38.584 74.4411 37.7938 74.4411C36.0018 74.4411 34.2906 74.0491 32.7165 73.2713L32.6542 73.2402L32.592 73.2588C31.0053 73.6633 29.4125 73.7877 27.8693 73.9122L27.4462 73.9433L27.7635 74.2233C30.352 76.5504 33.9609 77.8322 37.9245 77.8322C38.9698 77.8322 39.872 77.8322 40.9235 77.5957L44.7191 80.2091H44.7751C44.7938 80.2091 44.8435 80.2339 44.8809 80.2526C44.9618 80.2899 45.0613 80.3397 45.1795 80.3397C45.6462 80.3397 46.144 80.0348 46.144 79.3753V75.6606C47.9733 74.5282 49.4915 73.0224 50.5369 71.3113C51.6506 69.4882 52.2106 67.4971 52.2106 65.4002C52.2418 62.7122 51.3645 60.2668 49.6907 58.3255Z" fill="#FFB900"/>
</svg>
