<svg width="442" height="441" viewBox="0 0 442 441" fill="none" xmlns="http://www.w3.org/2000/svg">
<g clip-path="url(#clip0_2_2)">
<path d="M21.7279 200.368H29.8079V201.408H21.7279V200.368ZM19.6479 203.328H30.5599V204.384H19.6479V203.328ZM24.3679 200.752H25.5679V203.296C25.5679 205.184 24.8799 207.36 20.3359 208.736C20.1919 208.496 19.8559 208.08 19.5999 207.856C23.9359 206.672 24.3679 204.768 24.3679 203.28V200.752ZM22.0479 198.848L23.1839 199.136C22.6239 200.576 21.6159 201.904 20.6079 202.784C20.3839 202.608 19.8879 202.304 19.5999 202.176C20.6399 201.376 21.5519 200.144 22.0479 198.848ZM25.5679 204.016C26.3359 205.984 28.0959 207.232 30.6719 207.696C30.3999 207.936 30.0959 208.384 29.9359 208.704C27.2159 208.08 25.4239 206.608 24.5279 204.24L25.5679 204.016ZM17.5039 197.44H30.8639V198.608H18.7039V211.264H17.5039V197.44ZM18.2719 209.36H31.2159V210.528H18.2719V209.36ZM41.7919 196.608H42.9599V198.992H41.7919V196.608ZM37.9519 198.416H47.1199V201.328H45.9999V199.472H39.0239V201.344H37.9519V198.416ZM39.2159 201.248H45.8239V202.304H39.2159V201.248ZM38.1279 204.128H47.1679V205.216H38.1279V204.128ZM40.2719 204.608H41.4399C41.2479 208.032 40.6719 210.16 37.5199 211.296C37.4079 211.024 37.0879 210.592 36.8479 210.368C39.6959 209.408 40.1439 207.6 40.2719 204.608ZM43.2319 204.512H44.3679V209.52C44.3679 209.92 44.4319 209.984 44.7679 209.984C44.9119 209.984 45.6639 209.984 45.8559 209.984C46.2079 209.984 46.2719 209.728 46.3039 207.984C46.5279 208.192 47.0079 208.384 47.3279 208.448C47.2159 210.528 46.9279 211.072 45.9839 211.072C45.7439 211.072 44.8159 211.072 44.5919 211.072C43.5039 211.072 43.2319 210.72 43.2319 209.536V204.512ZM33.2799 197.264H37.0559V198.352H34.3679V211.296H33.2799V197.264ZM36.6879 197.264H36.8959L37.0879 197.216L37.8559 197.68C37.3919 198.992 36.7999 200.64 36.2559 201.92C37.4399 203.248 37.6959 204.368 37.6959 205.36C37.6959 206.224 37.5199 206.896 37.0719 207.216C36.8479 207.36 36.5599 207.456 36.2399 207.504C35.9199 207.536 35.5199 207.536 35.1519 207.52C35.1359 207.232 35.0399 206.768 34.8639 206.464C35.2319 206.496 35.5359 206.512 35.7919 206.48C35.9839 206.48 36.1599 206.432 36.2879 206.336C36.5439 206.16 36.6239 205.728 36.6239 205.248C36.6239 204.384 36.3359 203.296 35.1839 202.048C35.7599 200.592 36.3519 198.688 36.6879 197.584V197.264Z" fill="black"/>
<path d="M352.096 420.544H364.112V421.568H352.096V420.544ZM354.016 422.016L355.088 421.728C355.584 422.48 356.08 423.52 356.272 424.176L355.12 424.528C354.944 423.856 354.48 422.8 354.016 422.016ZM360.752 421.76L361.984 422.016C361.472 423.056 360.864 424.224 360.352 425.008L359.264 424.736C359.776 423.936 360.416 422.656 360.752 421.76ZM351.12 424.32H364.88V425.408H351.12V424.32ZM351.456 427.088H364.64V428.16H351.456V427.088ZM356.704 418.848L357.888 418.56C358.32 419.232 358.768 420.176 358.944 420.768L357.712 421.104C357.552 420.512 357.12 419.568 356.704 418.848ZM354.272 428.768L355.44 429.104C354.704 430.464 353.504 431.808 352.432 432.672C352.208 432.464 351.712 432.112 351.424 431.936C352.544 431.168 353.648 429.968 354.272 428.768ZM360.272 429.296L361.248 428.704C362.352 429.68 363.68 431.04 364.304 431.968L363.248 432.64C362.672 431.728 361.376 430.304 360.272 429.296ZM357.424 425.152H358.656V431.888C358.656 432.576 358.496 432.88 358.016 433.072C357.536 433.248 356.768 433.264 355.584 433.248C355.52 432.928 355.344 432.464 355.184 432.144C356.048 432.176 356.88 432.176 357.12 432.16C357.344 432.16 357.424 432.096 357.424 431.872V425.152ZM372.048 425.088C373.456 428.88 376.56 431.328 381.328 432.192C381.056 432.448 380.72 432.944 380.56 433.28C375.696 432.256 372.624 429.632 371.008 425.408L372.048 425.088ZM377.952 424.528H378.176L378.4 424.464L379.216 424.832C377.872 429.664 374.384 432.112 370.272 433.296C370.128 432.976 369.84 432.512 369.584 432.272C373.408 431.312 376.784 428.944 377.952 424.752V424.528ZM367.104 421.232H380.928V422.4H367.104V421.232ZM371.392 424.528H378.08V425.696H371.056L371.392 424.528ZM371.392 418.56H372.624C372.512 420.4 372.24 428.784 367.6 432.768C367.36 432.464 366.944 432.16 366.56 431.936C371.168 428.272 371.312 420.016 371.392 418.56Z" fill="black"/>
<path d="M42.9681 423.792H51.0481V424.864H42.9681V423.792ZM42.6801 431.568H51.2561V432.64H42.6801V431.568ZM42.1361 426.88H51.9281V433.296H50.7121V427.968H43.3041V433.296H42.1361V426.88ZM46.9521 419.792C45.6401 421.744 43.0161 424.016 40.2801 425.504C40.1201 425.232 39.8001 424.8 39.5281 424.544C42.3441 423.12 45.0161 420.672 46.2801 418.608H47.4961C49.2241 420.992 52.0241 423.216 54.5841 424.352C54.2801 424.64 53.9921 425.056 53.7841 425.408C51.2721 424.096 48.4561 421.84 46.9521 419.792ZM62.7921 421.248H70.3761V422.4H62.2321L62.7921 421.248ZM64.7921 424.72H70.0081V425.824H64.7921V424.72ZM64.7761 428.24H70.2321V429.376H64.7761V428.24ZM64.1841 421.616H65.4161V433.28H64.1841V421.616ZM63.4001 418.752L64.5681 419.056C63.6561 421.6 62.2641 424.112 60.7921 425.76C60.6161 425.552 60.1361 425.12 59.8641 424.928C61.3201 423.44 62.6161 421.104 63.4001 418.752ZM59.5601 418.624L60.7121 418.992C59.6561 421.696 58.0081 424.432 56.2641 426.224C56.1521 425.936 55.7841 425.296 55.5601 425.008C57.1601 423.456 58.6481 421.056 59.5601 418.624ZM57.8481 422.752L59.0321 421.552L59.0641 421.568V433.264H57.8481V422.752ZM84.9841 421.536L86.2801 421.904C85.7201 423.456 85.0001 425.28 84.3921 426.432L83.3361 426.08C83.9121 424.896 84.6161 422.928 84.9841 421.536ZM81.1121 418.672H81.7521V424.976C81.7521 426.432 82.5681 430.24 86.6801 432.096C86.4241 432.4 86.0881 432.944 85.8961 433.28C82.5201 431.728 81.3681 428.624 81.0961 427.344C80.8721 428.64 79.7361 431.68 76.4401 433.264C76.2801 432.992 75.9121 432.448 75.6561 432.16C79.6561 430.272 80.4721 426.432 80.4721 424.976V418.672H81.1121ZM77.3681 421.616L78.4721 421.776C78.3921 423.616 78.0241 425.6 77.1281 426.784L76.0881 426.256C76.8881 425.232 77.2561 423.36 77.3681 421.616ZM75.4161 418.608L76.5521 418.96C75.4641 421.664 73.7521 424.352 71.9761 426.128C71.8641 425.856 71.5281 425.232 71.3041 424.944C72.9201 423.424 74.4881 421.04 75.4161 418.608ZM73.7521 422.72L74.8881 421.584L74.9041 421.6V433.264H73.7521V422.72ZM96.4081 418.752H97.6081V433.28H96.4081V418.752ZM92.4401 423.696H101.72V424.816H92.4401V423.696ZM91.7841 427.632H102.392V428.768H91.7841V427.632ZM92.6481 419.776L93.6721 419.392C94.2961 420.448 94.9201 421.872 95.1441 422.752L94.0721 423.232C93.8481 422.336 93.2561 420.88 92.6481 419.776ZM100.392 419.264L101.608 419.712C101.032 420.912 100.328 422.304 99.7521 423.216L98.7921 422.816C99.3361 421.872 100.024 420.336 100.392 419.264ZM91.4161 418.608L92.5521 418.96C91.4641 421.664 89.7521 424.352 87.9761 426.128C87.8641 425.856 87.5281 425.232 87.3041 424.944C88.9201 423.424 90.4881 421.04 91.4161 418.608ZM89.7521 422.736L90.8881 421.6L90.9041 421.616V433.248H89.7521V422.736Z" fill="black"/>
<mask id="mask0_2_2" style="mask-type:luminance" maskUnits="userSpaceOnUse" x="156" y="49" width="256" height="256">
<path d="M411.151 177.214L283.872 49.9346L156.593 177.214L283.872 304.493L411.151 177.214Z" fill="white"/>
</mask>
<g mask="url(#mask0_2_2)">
<path d="M225.546 110.106L224.591 184.119C224.591 184.119 275.503 184.246 277.54 237.067C277.794 237.576 351.298 235.858 351.298 235.858C351.298 235.858 357.789 113.288 225.546 110.106Z" fill="white"/>
</g>
<mask id="mask1_2_2" style="mask-type:luminance" maskUnits="userSpaceOnUse" x="158" y="176" width="256" height="256">
<path d="M285.993 431.065L413.272 303.786L285.993 176.507L158.714 303.786L285.993 431.065Z" fill="white"/>
</mask>
<g mask="url(#mask1_2_2)">
<path d="M353.101 245.46L279.088 244.506C279.088 244.506 278.961 295.417 226.14 297.454C225.631 297.708 227.349 371.212 227.349 371.212C227.349 371.212 349.919 377.703 353.101 245.46Z" fill="white"/>
</g>
<mask id="mask2_2_2" style="mask-type:luminance" maskUnits="userSpaceOnUse" x="31" y="49" width="255" height="255">
<path d="M31.4348 176.507L158.714 49.2275L285.993 176.507L158.714 303.786L31.4348 176.507Z" fill="white"/>
</mask>
<g mask="url(#mask2_2_2)">
<path d="M217.04 109.399L217.994 183.412C217.994 183.412 167.083 183.539 165.046 236.36C164.792 236.869 91.288 235.151 91.288 235.151C91.288 235.151 84.7967 112.581 217.04 109.399Z" fill="white"/>
</g>
<mask id="mask3_2_2" style="mask-type:luminance" maskUnits="userSpaceOnUse" x="32" y="176" width="256" height="256">
<path d="M32.8488 303.786L160.128 431.065L287.407 303.786L160.128 176.507L32.8488 303.786Z" fill="white"/>
</mask>
<g mask="url(#mask3_2_2)">
<path d="M218.454 370.894L219.409 296.881C219.409 296.881 168.497 296.754 166.46 243.933C166.206 243.424 92.7023 245.142 92.7023 245.142C92.7023 245.142 86.211 367.712 218.454 370.894Z" fill="white"/>
</g>
<path d="M223 440.5C333.181 440.5 422.5 351.181 422.5 241C422.5 130.819 333.181 41.5 223 41.5C112.819 41.5 23.5 130.819 23.5 241C23.5 351.181 112.819 440.5 223 440.5Z" stroke="#CED3E3"/>
<path d="M222 288C248.51 288 270 266.51 270 240C270 213.49 248.51 192 222 192C195.49 192 174 213.49 174 240C174 266.51 195.49 288 222 288Z" fill="#007EFF"/>
<path d="M212 64C229.673 64 244 49.6731 244 32C244 14.3269 229.673 0 212 0C194.327 0 180 14.3269 180 32C180 49.6731 194.327 64 212 64Z" fill="white"/>
<path d="M402 194C419.673 194 434 179.673 434 162C434 144.327 419.673 130 402 130C384.327 130 370 144.327 370 162C370 179.673 384.327 194 402 194Z" fill="white"/>
<path d="M362 404C379.673 404 394 389.673 394 372C394 354.327 379.673 340 362 340C344.327 340 330 354.327 330 372C330 389.673 344.327 404 362 404Z" fill="white"/>
<path d="M374.226 388.36C373.955 388.348 373.698 388.238 373.502 388.05L369.276 383.72C368.627 383.059 368.258 382.173 368.246 381.246C368.21 380.31 368.586 379.406 369.276 378.772C369.584 378.455 369.952 378.202 370.359 378.03C370.766 377.857 371.204 377.769 371.646 377.769C372.088 377.769 372.526 377.857 372.933 378.03C373.34 378.202 373.708 378.455 374.016 378.772L374.12 378.876L374.224 378.772C374.532 378.455 374.9 378.202 375.307 378.03C375.714 377.857 376.152 377.769 376.594 377.769C377.036 377.769 377.474 377.857 377.881 378.03C378.288 378.202 378.656 378.455 378.964 378.772C379.614 379.432 379.984 380.32 379.996 381.246C380.032 382.182 379.656 383.086 378.966 383.72L374.74 388.05C374.742 388.256 374.434 388.358 374.226 388.358V388.36Z" fill="#007EFF"/>
<path d="M367.94 383.822C366.806 382.586 367.012 379.906 367.94 378.668C368.364 378.09 368.925 377.627 369.573 377.321C370.221 377.015 370.935 376.876 371.65 376.916C370.347 376.013 368.874 375.382 367.32 375.064C368.872 374.493 370.238 373.508 371.269 372.215C372.3 370.921 372.956 369.37 373.167 367.73C373.377 366.09 373.134 364.423 372.463 362.912C371.792 361.4 370.719 360.102 369.361 359.158C368.003 358.214 366.413 357.66 364.762 357.557C363.112 357.454 361.465 357.806 360 358.574C358.536 359.343 357.31 360.498 356.457 361.914C355.603 363.331 355.155 364.954 355.16 366.608C355.162 368.434 355.714 370.217 356.743 371.725C357.773 373.234 359.232 374.397 360.932 375.064C358.138 375.729 355.606 377.211 353.66 379.323C351.713 381.434 350.44 384.078 350.004 386.916C350.004 387.018 349.9 388.462 351.344 388.462H372.268C370.928 387.018 369.486 385.576 367.94 383.822Z" fill="#007EFF"/>
<path d="M72 404C89.6731 404 104 389.673 104 372C104 354.327 89.6731 340 72 340C54.3269 340 40 354.327 40 372C40 389.673 54.3269 404 72 404Z" fill="white"/>
<path d="M71.767 362.165L67.114 366.814L66.8935 367.045C64.4485 369.824 64.5505 373.864 67.081 376.394C68.2629 377.576 69.8412 378.277 71.5104 378.362C73.1797 378.447 74.8211 377.91 76.117 376.855L76.2625 376.73L76.582 376.436L78.2155 374.803L82.459 379.045L75.034 386.47C74.4714 387.032 73.7085 387.348 72.913 387.348C72.1175 387.348 71.3546 387.032 70.792 386.47L60.187 375.865C58.5895 374.269 57.65 372.132 57.5549 369.876C57.4598 367.62 58.2159 365.411 59.6735 363.687C61.131 361.962 63.1833 360.849 65.4235 360.567C67.6636 360.285 69.9278 360.856 71.767 362.165ZM85.411 362.917L85.6675 363.164L85.7635 363.263L85.9735 363.485C86.2375 363.779 86.4805 364.088 86.6995 364.406L86.563 364.213C86.6395 364.319 86.7145 364.427 86.788 364.537L86.6995 364.406C86.782 364.526 86.86 364.646 86.935 364.766L86.788 364.537C86.8525 364.634 86.914 364.732 86.974 364.832L86.935 364.766C86.998 364.87 87.0595 364.973 87.1195 365.078L86.974 364.832C87.0505 364.957 87.124 365.084 87.193 365.212L87.118 365.078C87.1735 365.176 87.226 365.273 87.277 365.371L87.193 365.212C87.253 365.324 87.313 365.437 87.3685 365.552L87.2785 365.372C87.346 365.503 87.409 365.635 87.4705 365.768L87.3685 365.552C87.418 365.654 87.466 365.758 87.511 365.861L87.4705 365.768C87.5335 365.908 87.5935 366.046 87.649 366.188L87.511 365.861C88.185 367.402 88.4163 369.1 88.1789 370.764C87.9415 372.429 87.2448 373.995 86.167 375.286L85.9 375.595L85.7575 375.742L85.642 375.865L83.5195 377.984L79.2775 373.742C78.9962 373.461 78.6147 373.303 78.217 373.303C77.8192 373.303 77.4378 373.461 77.1565 373.742L75.5665 375.334L75.2845 375.593L75.169 375.692C74.1611 376.513 72.8845 376.931 71.5863 376.864C70.2881 376.798 69.0607 376.253 68.1415 375.334C66.2575 373.45 66.0925 370.468 67.777 368.323L67.9795 368.08L68.1745 367.874L72.952 363.098L73.0045 363.047L73.2535 362.813C73.4407 362.644 73.6348 362.483 73.8355 362.33L73.642 362.483C73.747 362.399 73.852 362.318 73.957 362.239L73.837 362.33C73.9315 362.258 74.0275 362.188 74.125 362.12L73.9585 362.24C74.0648 362.162 74.1728 362.086 74.2825 362.012L74.125 362.12C74.2265 362.049 74.3296 361.979 74.434 361.912L74.2825 362.012C74.3905 361.94 74.4985 361.871 74.608 361.804L74.434 361.912C74.539 361.846 74.644 361.781 74.7505 361.72L74.608 361.804C74.716 361.738 74.8255 361.675 74.9365 361.615L74.7505 361.72C74.8585 361.657 74.968 361.595 75.0775 361.538L74.9365 361.613C75.0415 361.556 75.1495 361.499 75.2575 361.445L75.0775 361.538C75.1855 361.481 75.295 361.426 75.4045 361.373L75.2575 361.445L75.5905 361.288L75.4045 361.373C75.52 361.319 75.637 361.267 75.754 361.216L75.5905 361.288C75.706 361.237 75.823 361.187 75.94 361.141L75.754 361.216C75.8725 361.166 75.991 361.118 76.111 361.073L75.94 361.141C77.5256 360.515 79.2557 360.35 80.931 360.664C82.6064 360.979 84.1588 361.76 85.4095 362.918L85.411 362.917Z" fill="#007EFF"/>
<path d="M32 184C49.6731 184 64 169.673 64 152C64 134.327 49.6731 120 32 120C14.3269 120 0 134.327 0 152C0 169.673 14.3269 184 32 184Z" fill="white"/>
<path d="M49.9732 169.026H20.0271C19.6404 169.026 19.324 168.709 19.324 168.323V166.916C19.324 166.53 19.6404 166.213 20.0271 166.213H49.9697C50.3564 166.213 50.6728 166.53 50.6728 166.916V168.323C50.6763 168.713 50.3599 169.026 49.9732 169.026ZM48.5036 164.856H44.0036V148.023H46.3943C47.5579 148.023 48.5036 148.969 48.5036 150.133V164.856Z" fill="#007EFF"/>
<path d="M39.2821 138.974H24.6817C23.0083 138.974 21.6548 140.233 21.6548 141.787V166.635H42.3126V141.787C42.3091 140.233 40.9555 138.974 39.2821 138.974ZM27.9759 146.821C27.9759 146.512 28.1411 146.262 28.3415 146.262H30.5915V144.03C30.5915 143.84 30.8587 143.685 31.1856 143.685H32.3739C32.7009 143.685 32.968 143.84 32.968 144.03V146.262H35.218C35.422 146.262 35.5837 146.512 35.5837 146.821V147.942C35.5837 148.252 35.4184 148.501 35.218 148.501H32.968V150.505C32.968 150.695 32.7009 150.85 32.3739 150.85H31.1856C30.8587 150.85 30.5915 150.695 30.5915 150.505V148.501H28.3415C28.1376 148.501 27.9759 148.252 27.9759 147.942V146.821ZM38.6212 160.862C38.6212 161.203 38.2837 161.478 37.8653 161.478H26.0774C25.6591 161.478 25.3216 161.203 25.3216 160.862V159.632C25.3216 159.291 25.6591 159.017 26.0774 159.017H37.8653C38.2837 159.017 38.6212 159.291 38.6212 159.632V160.862ZM38.6212 155.768C38.6212 156.109 38.2837 156.383 37.8653 156.383H26.0774C25.6591 156.383 25.3216 156.109 25.3216 155.768V154.538C25.3216 154.197 25.6591 153.923 26.0774 153.923H37.8653C38.2837 153.923 38.6212 154.197 38.6212 154.538V155.768Z" fill="#007EFF"/>
<mask id="mask4_2_2" style="mask-type:luminance" maskUnits="userSpaceOnUse" x="386" y="142" width="36" height="36">
<path d="M422 142H386V178H422V142Z" fill="white"/>
</mask>
<g mask="url(#mask4_2_2)">
<path d="M404.018 162.772C410.066 162.772 412.01 157.84 412.01 153.43H396.026C396.026 157.84 397.97 162.772 404.018 162.772ZM421.262 174.382C421.028 168.208 413.396 163.258 404 163.258C394.604 163.258 386.972 168.208 386.738 174.382H386.72V178H421.28L421.262 174.382ZM411.092 146.356C410.84 143.872 408.752 142 406.268 142H401.768C399.266 142 397.196 143.872 396.926 146.356L396.386 151.504H411.632L411.092 146.356ZM406.97 147.958H404.666V150.262H403.334V147.958H401.048V146.626H403.352V144.322H404.684V146.626H406.988V147.958H406.97Z" fill="#007EFF"/>
</g>
<path d="M201.116 326.157L203.142 327.339C203.678 327.652 203.789 328.076 203.476 328.612L203.262 328.98C202.949 329.516 202.525 329.628 201.989 329.315L199.963 328.133C199.427 327.82 199.315 327.395 199.628 326.859L199.843 326.492C200.156 325.956 200.58 325.844 201.116 326.157Z" fill="#48A4FF"/>
<path d="M198.754 330.169L200.78 331.351C201.316 331.664 201.427 332.088 201.114 332.624L200.9 332.992C200.587 333.528 200.163 333.639 199.627 333.326L197.601 332.144C197.065 331.831 196.953 331.407 197.266 330.871L197.481 330.503C197.793 329.967 198.218 329.856 198.754 330.169Z" fill="#48A4FF"/>
<path d="M196.413 334.197L198.439 335.379C198.975 335.692 199.086 336.116 198.774 336.653L198.559 337.02C198.246 337.556 197.822 337.668 197.286 337.355L195.26 336.173C194.724 335.86 194.613 335.435 194.925 334.899L195.14 334.532C195.453 333.996 195.877 333.884 196.413 334.197Z" fill="#48A4FF"/>
<path d="M213.874 319.24L208.586 316.159C208.327 316.006 208.017 315.962 207.725 316.035C207.432 316.108 207.18 316.293 207.023 316.55L206.77 316.987C206.69 317.118 206.637 317.265 206.614 317.417C206.592 317.569 206.6 317.724 206.639 317.873C206.677 318.022 206.745 318.162 206.839 318.284C206.933 318.407 207.05 318.509 207.184 318.585L207.736 318.907L205.735 322.298L204.24 321.436C203.982 321.28 203.695 321.179 203.396 321.136C203.097 321.094 202.793 321.112 202.502 321.189C202.21 321.266 201.937 321.401 201.699 321.586C201.46 321.77 201.261 322.001 201.113 322.263L192.239 337.472C191.544 338.659 191.342 340.071 191.675 341.405C192.008 342.739 192.85 343.89 194.02 344.612L193.17 346.049C193.026 346.309 192.989 346.615 193.066 346.902C193.143 347.19 193.329 347.436 193.584 347.589L194.02 347.842C194.151 347.918 194.295 347.968 194.445 347.989C194.595 348.01 194.747 348 194.894 347.962C195.04 347.924 195.177 347.857 195.298 347.765C195.418 347.673 195.519 347.559 195.595 347.428L196.446 345.98C197.175 346.354 197.983 346.551 198.803 346.554C199.732 346.561 200.647 346.322 201.454 345.862C202.262 345.402 202.933 344.737 203.401 343.933L212.265 328.747C212.418 328.486 212.518 328.198 212.559 327.898C212.6 327.598 212.582 327.293 212.505 327.001C212.428 326.708 212.294 326.434 212.111 326.193C211.928 325.952 211.699 325.75 211.437 325.598L210.115 324.827L212.104 321.379L212.494 321.609C212.622 321.689 212.764 321.744 212.913 321.77C213.062 321.796 213.214 321.792 213.361 321.759C213.509 321.726 213.648 321.664 213.771 321.577C213.895 321.49 214 321.38 214.081 321.252L214.334 320.815C214.408 320.682 214.456 320.535 214.473 320.384C214.49 320.232 214.477 320.078 214.434 319.931C214.391 319.785 214.32 319.648 214.224 319.53C214.127 319.411 214.008 319.313 213.874 319.24ZM210.242 327.621L201.436 342.806C201.24 343.146 200.978 343.444 200.666 343.682C200.354 343.92 199.998 344.094 199.619 344.193C199.239 344.293 198.844 344.316 198.455 344.261C198.067 344.207 197.693 344.076 197.355 343.876L195.354 342.726C194.67 342.328 194.173 341.674 193.97 340.909C193.768 340.144 193.877 339.33 194.273 338.645L203.079 323.448L210.242 327.621ZM208.689 324.045L207.183 323.137L209.173 319.689L210.748 320.608L208.689 324.045Z" fill="#555555"/>
<mask id="mask5_2_2" style="mask-type:luminance" maskUnits="userSpaceOnUse" x="139" y="300" width="27" height="27">
<path d="M166 300H139V327H166V300Z" fill="white"/>
</mask>
<g mask="url(#mask5_2_2)">
<path d="M158.976 311.513C156.926 310.651 154.726 310.205 152.502 310.202C151.921 310.202 151.343 310.235 150.766 310.297L149.906 307.44C149.835 307.234 149.686 307.063 149.491 306.963C149.297 306.864 149.071 306.844 148.862 306.907C148.653 306.97 148.476 307.111 148.368 307.302C148.261 307.492 148.232 307.717 148.286 307.928L149.083 310.565C148.035 310.782 147.012 311.101 146.026 311.515L144.477 307.915C145.873 307.24 149.218 305.828 152.498 305.828C155.777 305.828 159.125 307.242 160.521 307.911L158.976 311.515V311.513ZM162.027 306.777C161.832 306.669 157.219 304.135 152.498 304.135C147.773 304.135 143.166 306.669 142.971 306.777C142.788 306.879 142.649 307.045 142.581 307.243C142.513 307.442 142.52 307.658 142.603 307.851L144.817 312.989C144.863 313.098 144.933 313.195 145.02 313.275C145.108 313.355 145.211 313.415 145.324 313.452C145.436 313.491 145.554 313.505 145.672 313.495C145.79 313.485 145.905 313.45 146.008 313.392C146.035 313.373 148.722 311.891 152.502 311.891C156.238 311.891 158.947 313.365 158.993 313.392C159.097 313.45 159.211 313.485 159.329 313.496C159.447 313.507 159.566 313.492 159.678 313.454C159.791 313.416 159.894 313.356 159.982 313.276C160.069 313.195 160.138 313.098 160.185 312.989L162.399 307.851C162.48 307.658 162.487 307.441 162.418 307.243C162.35 307.045 162.21 306.879 162.027 306.777Z" fill="#262A33"/>
<path d="M162.143 300H142.857C141.834 300 140.853 300.406 140.13 301.13C139.406 301.853 139 302.834 139 303.857V323.143C139 324.166 139.406 325.147 140.13 325.87C140.853 326.594 141.834 327 142.857 327H162.143C163.166 327 164.147 326.594 164.87 325.87C165.594 325.147 166 324.166 166 323.143V303.857C166 302.834 165.594 301.853 164.87 301.13C164.147 300.406 163.166 300 162.143 300ZM162.143 301.929C163.205 301.929 164.071 302.793 164.071 303.857V323.143C164.071 324.207 163.205 325.071 162.143 325.071H142.857C141.796 325.071 140.929 324.207 140.929 323.143V303.857C140.929 302.793 141.796 301.929 142.857 301.929H162.143Z" fill="#262A33"/>
</g>
<path d="M140.454 186.516H125.387C123.082 186.516 121.214 188.384 121.214 190.688V206.171C121.214 212.478 126.327 217.591 132.634 217.591H133.206C139.513 217.591 144.627 212.478 144.627 206.171V190.688C144.627 188.384 142.759 186.516 140.454 186.516ZM142.597 206.045C142.597 211.228 138.38 215.444 133.198 215.444H132.643C127.461 215.444 123.244 211.228 123.244 206.045V191.034C123.244 189.726 124.308 188.662 125.616 188.662H140.225C141.533 188.662 142.597 189.726 142.597 191.034V206.045ZM137.417 209.893C137.416 210.072 137.452 210.25 137.52 210.416C137.589 210.582 137.689 210.733 137.816 210.86C138.072 211.116 138.42 211.261 138.783 211.261C139.145 211.261 139.493 211.117 139.75 210.861C140.006 210.605 140.15 210.257 140.151 209.895V209.893C140.151 209.53 140.007 209.183 139.751 208.926C139.495 208.669 139.147 208.525 138.785 208.525C138.422 208.525 138.074 208.668 137.818 208.925C137.561 209.181 137.417 209.528 137.417 209.891V209.893ZM137.741 189.749H128.1C126.352 189.749 124.935 191.166 124.935 192.914V201.799C124.935 203.548 126.352 204.965 128.1 204.965H137.741C139.489 204.965 140.906 203.547 140.906 201.799V192.914C140.906 191.166 139.489 189.749 137.741 189.749ZM139.157 201.619C139.157 201.984 139.011 202.334 138.753 202.593C138.494 202.851 138.144 202.997 137.779 202.997H128.54C128.175 202.997 127.824 202.851 127.566 202.593C127.308 202.334 127.162 201.984 127.162 201.619V193.104C127.162 192.738 127.308 192.388 127.566 192.13C127.824 191.871 128.175 191.726 128.54 191.725H137.779C138.144 191.726 138.494 191.871 138.753 192.13C139.011 192.388 139.157 192.738 139.157 193.104V201.619Z" fill="#515151"/>
<path d="M131.454 256.516H116.387C114.082 256.516 112.214 258.384 112.214 260.688V276.171C112.214 282.478 117.327 287.591 123.634 287.591H124.206C130.513 287.591 135.627 282.478 135.627 276.171V260.688C135.627 258.384 133.759 256.516 131.454 256.516ZM133.597 276.045C133.597 281.228 129.38 285.444 124.198 285.444H123.643C118.461 285.444 114.244 281.228 114.244 276.045V261.034C114.244 259.726 115.308 258.662 116.616 258.662H131.225C132.533 258.662 133.597 259.726 133.597 261.034V276.045ZM128.417 279.893C128.416 280.072 128.452 280.25 128.52 280.416C128.589 280.582 128.689 280.733 128.816 280.86C129.072 281.116 129.42 281.261 129.783 281.261C130.145 281.261 130.493 281.117 130.75 280.861C131.006 280.605 131.15 280.257 131.151 279.895V279.893C131.151 279.53 131.007 279.183 130.751 278.926C130.495 278.669 130.147 278.525 129.785 278.525C129.422 278.525 129.074 278.668 128.818 278.925C128.561 279.181 128.417 279.528 128.417 279.891V279.893ZM128.741 259.749H119.1C117.352 259.749 115.935 261.166 115.935 262.914V271.799C115.935 273.548 117.352 274.965 119.1 274.965H128.741C130.489 274.965 131.906 273.547 131.906 271.799V262.914C131.906 261.166 130.489 259.749 128.741 259.749ZM130.157 271.619C130.157 271.984 130.011 272.334 129.753 272.593C129.494 272.851 129.144 272.997 128.779 272.997H119.54C119.175 272.997 118.824 272.851 118.566 272.593C118.308 272.334 118.162 271.984 118.162 271.619V263.104C118.162 262.738 118.308 262.388 118.566 262.13C118.824 261.871 119.175 261.726 119.54 261.725H128.779C129.144 261.726 129.494 261.871 129.753 262.13C130.011 262.388 130.157 262.738 130.157 263.104V271.619Z" fill="#515151"/>
<mask id="mask6_2_2" style="mask-type:luminance" maskUnits="userSpaceOnUse" x="287" y="180" width="32" height="32">
<path d="M319 180H287V212H319V180Z" fill="white"/>
</mask>
<g mask="url(#mask6_2_2)">
<path d="M287 180H319V212H287V180Z" fill="white"/>
<path d="M294.875 182.5C294.186 182.5 293.625 183.061 293.625 183.75V208.25C293.625 208.939 294.186 209.5 294.875 209.5H311.125C311.814 209.5 312.375 208.939 312.375 208.25V183.75C312.375 183.061 311.814 182.5 311.125 182.5H294.875ZM294.875 180H311.125C313.196 180 314.875 181.679 314.875 183.75V208.25C314.875 210.321 313.196 212 311.125 212H294.875C292.804 212 291.125 210.321 291.125 208.25V183.75C291.125 181.679 292.804 180 294.875 180Z" fill="#505873"/>
<path d="M311.125 210.75H294.875C293.497 210.75 292.375 209.628 292.375 208.25V203.875H313.625V208.25C313.625 209.628 312.503 210.75 311.125 210.75Z" fill="white"/>
<path d="M293.625 205.125V208.25C293.625 208.939 294.186 209.5 294.875 209.5H311.125C311.814 209.5 312.375 208.939 312.375 208.25V205.125H293.625ZM291.125 202.625H314.875V208.25C314.875 210.321 313.196 212 311.125 212H294.875C292.804 212 291.125 210.321 291.125 208.25V202.625Z" fill="#505873"/>
<path d="M302.976 205.688C303.266 205.689 303.55 205.776 303.79 205.939C304.031 206.101 304.218 206.331 304.328 206.599C304.438 206.868 304.466 207.163 304.408 207.447C304.351 207.732 304.21 207.993 304.005 208.197C303.799 208.402 303.537 208.541 303.253 208.597C302.968 208.653 302.673 208.624 302.405 208.512C302.137 208.401 301.908 208.213 301.747 207.971C301.586 207.73 301.5 207.446 301.5 207.156C301.5 206.963 301.539 206.772 301.613 206.593C301.688 206.415 301.797 206.253 301.934 206.116C302.071 205.98 302.234 205.872 302.412 205.798C302.591 205.725 302.783 205.687 302.976 205.688Z" fill="#007EFF"/>
<path d="M305.188 186H300.812C300.481 186 300.163 185.868 299.929 185.634C299.694 185.399 299.562 185.082 299.562 184.75C299.562 184.418 299.694 184.101 299.929 183.866C300.163 183.632 300.481 183.5 300.812 183.5H305.188C305.519 183.5 305.837 183.632 306.071 183.866C306.306 184.101 306.438 184.418 306.438 184.75C306.438 185.082 306.306 185.399 306.071 185.634C305.837 185.868 305.519 186 305.188 186Z" fill="#505873"/>
</g>
<mask id="mask7_2_2" style="mask-type:luminance" maskUnits="userSpaceOnUse" x="286" y="280" width="32" height="32">
<path d="M318 280H286V312H318V280Z" fill="white"/>
</mask>
<g mask="url(#mask7_2_2)">
<path d="M286 280H318V312H286V280Z" fill="white"/>
<path d="M293.875 282.5C293.186 282.5 292.625 283.061 292.625 283.75V308.25C292.625 308.939 293.186 309.5 293.875 309.5H310.125C310.814 309.5 311.375 308.939 311.375 308.25V283.75C311.375 283.061 310.814 282.5 310.125 282.5H293.875ZM293.875 280H310.125C312.196 280 313.875 281.679 313.875 283.75V308.25C313.875 310.321 312.196 312 310.125 312H293.875C291.804 312 290.125 310.321 290.125 308.25V283.75C290.125 281.679 291.804 280 293.875 280Z" fill="#505873"/>
<path d="M310.125 310.75H293.875C292.497 310.75 291.375 309.628 291.375 308.25V303.875H312.625V308.25C312.625 309.628 311.503 310.75 310.125 310.75Z" fill="white"/>
<path d="M292.625 305.125V308.25C292.625 308.939 293.186 309.5 293.875 309.5H310.125C310.814 309.5 311.375 308.939 311.375 308.25V305.125H292.625ZM290.125 302.625H313.875V308.25C313.875 310.321 312.196 312 310.125 312H293.875C291.804 312 290.125 310.321 290.125 308.25V302.625Z" fill="#505873"/>
<path d="M301.976 305.688C302.266 305.689 302.55 305.776 302.79 305.939C303.031 306.101 303.218 306.331 303.328 306.599C303.438 306.868 303.466 307.163 303.408 307.447C303.351 307.732 303.21 307.993 303.005 308.197C302.799 308.402 302.537 308.541 302.253 308.597C301.968 308.653 301.673 308.624 301.405 308.512C301.137 308.401 300.908 308.213 300.747 307.971C300.586 307.73 300.5 307.446 300.5 307.156C300.5 306.963 300.539 306.772 300.613 306.593C300.688 306.415 300.797 306.253 300.934 306.116C301.071 305.98 301.234 305.872 301.412 305.798C301.591 305.725 301.783 305.687 301.976 305.688Z" fill="#FF402A"/>
<path d="M304.188 286H299.812C299.481 286 299.163 285.868 298.929 285.634C298.694 285.399 298.562 285.082 298.562 284.75C298.562 284.418 298.694 284.101 298.929 283.866C299.163 283.632 299.481 283.5 299.812 283.5H304.188C304.519 283.5 304.837 283.632 305.071 283.866C305.306 284.101 305.438 284.418 305.438 284.75C305.438 285.082 305.306 285.399 305.071 285.634C304.837 285.868 304.519 286 304.188 286Z" fill="#505873"/>
</g>
<path d="M275.986 164.078H250.155C249.901 164.078 249.657 163.977 249.476 163.797C249.296 163.617 249.195 163.373 249.195 163.118V144.48C249.195 144.225 249.296 143.981 249.476 143.801C249.657 143.621 249.901 143.52 250.155 143.52H275.986C276.24 143.52 276.485 143.621 276.665 143.801C276.845 143.981 276.946 144.225 276.946 144.48V163.118C276.946 163.373 276.845 163.617 276.665 163.797C276.485 163.977 276.24 164.078 275.986 164.078ZM251.115 162.158H275.026V145.44H251.115V162.158Z" fill="#37313F"/>
<path d="M261.35 155.945L264.303 150.703L265.976 151.645L263.023 156.887L261.35 155.945ZM258.395 157.245L254.877 153.832L258.294 150.362L259.662 151.709L257.602 153.8L259.733 155.866L258.395 157.245ZM268.912 157.245L267.574 155.866L269.706 153.8L267.645 151.709L269.013 150.362L272.43 153.832L268.912 157.245Z" fill="#007EFF"/>
<path d="M270.179 168.399H255.8C255.674 168.399 255.549 168.374 255.433 168.325C255.316 168.277 255.21 168.206 255.121 168.117C255.032 168.028 254.961 167.922 254.913 167.806C254.865 167.689 254.84 167.565 254.84 167.439C254.84 167.312 254.865 167.188 254.913 167.071C254.961 166.955 255.032 166.849 255.121 166.76C255.21 166.671 255.316 166.6 255.433 166.552C255.549 166.503 255.674 166.479 255.8 166.479H270.178C270.432 166.479 270.676 166.58 270.857 166.76C271.037 166.94 271.138 167.184 271.138 167.439C271.138 167.693 271.037 167.937 270.857 168.117C270.676 168.297 270.433 168.399 270.179 168.399Z" fill="#37313F"/>
<path d="M175.986 164.078H150.155C149.901 164.078 149.657 163.977 149.476 163.797C149.296 163.617 149.195 163.373 149.195 163.118V144.48C149.195 144.225 149.296 143.981 149.476 143.801C149.657 143.621 149.901 143.52 150.155 143.52H175.986C176.24 143.52 176.485 143.621 176.665 143.801C176.845 143.981 176.946 144.225 176.946 144.48V163.118C176.946 163.373 176.845 163.617 176.665 163.797C176.485 163.977 176.24 164.078 175.986 164.078ZM151.115 162.158H175.026V145.44H151.115V162.158Z" fill="#37313F"/>
<path d="M161.35 155.945L164.303 150.703L165.976 151.645L163.023 156.887L161.35 155.945ZM158.395 157.245L154.877 153.832L158.294 150.362L159.662 151.709L157.602 153.8L159.733 155.866L158.395 157.245ZM168.912 157.245L167.574 155.866L169.706 153.8L167.645 151.709L169.013 150.362L172.43 153.832L168.912 157.245Z" fill="#007EFF"/>
<path d="M170.179 168.399H155.8C155.674 168.399 155.549 168.374 155.433 168.325C155.316 168.277 155.21 168.206 155.121 168.117C155.032 168.028 154.961 167.922 154.913 167.806C154.865 167.689 154.84 167.565 154.84 167.439C154.84 167.312 154.865 167.188 154.913 167.071C154.961 166.955 155.032 166.849 155.121 166.76C155.21 166.671 155.316 166.6 155.433 166.552C155.549 166.503 155.674 166.479 155.8 166.479H170.178C170.432 166.479 170.676 166.58 170.857 166.76C171.037 166.94 171.138 167.184 171.138 167.439C171.138 167.693 171.037 167.937 170.857 168.117C170.676 168.297 170.432 168.399 170.178 168.399H170.179Z" fill="#37313F"/>
<path d="M203.012 74.572H210.082V75.482H203.012V74.572ZM201.192 77.162H210.74V78.086H201.192V77.162ZM205.322 74.908H206.372V77.134C206.372 78.786 205.77 80.69 201.794 81.894C201.668 81.684 201.374 81.32 201.15 81.124C204.944 80.088 205.322 78.422 205.322 77.12V74.908ZM203.292 73.242L204.286 73.494C203.796 74.754 202.914 75.916 202.032 76.686C201.836 76.532 201.402 76.266 201.15 76.154C202.06 75.454 202.858 74.376 203.292 73.242ZM206.372 77.764C207.044 79.486 208.584 80.578 210.838 80.984C210.6 81.194 210.334 81.586 210.194 81.866C207.814 81.32 206.246 80.032 205.462 77.96L206.372 77.764ZM199.316 72.01H211.006V73.032H200.366V84.106H199.316V72.01ZM199.988 82.44H211.314V83.462H199.988V82.44ZM214.912 73.97H224.614V74.992H214.912V73.97ZM214.296 78.072H224.11V79.08H214.296V78.072ZM212.77 82.65H225.272V83.672H212.77V82.65ZM218.482 71.254H219.56V83.168H218.482V71.254ZM215.332 71.478L216.41 71.716C215.794 73.886 214.814 75.958 213.694 77.302C213.484 77.12 213.008 76.812 212.742 76.672C213.89 75.426 214.8 73.48 215.332 71.478Z" fill="black"/>
<path d="M379.608 214.072C380.968 213.736 382.984 213.128 384.952 212.552L385.128 213.656C383.304 214.216 381.4 214.808 379.928 215.256L379.608 214.072ZM379.848 208.792H385.032V209.944H379.848V208.792ZM382.008 205.576H383.176V218.792C383.176 219.448 383.032 219.8 382.616 219.992C382.2 220.184 381.56 220.216 380.488 220.216C380.44 219.912 380.296 219.4 380.12 219.064C380.856 219.08 381.512 219.08 381.704 219.08C381.928 219.08 382.008 219.016 382.008 218.776V205.576ZM386.952 212.472H393.224V213.608H386.952V212.472ZM386.904 208.328H393.784V214.616H392.6V209.432H386.904V208.328ZM386.152 208.328H387.336V212.632C387.336 215 387.032 218.232 385.112 220.312C384.936 220.072 384.424 219.64 384.152 219.48C385.944 217.512 386.152 214.76 386.152 212.616V208.328ZM388.44 206.04L389.512 205.624C390.136 206.312 390.776 207.24 391.048 207.864L389.928 208.36C389.672 207.704 389.032 206.744 388.44 206.04ZM402.6 210.376V212.44H408.552V210.376H402.6ZM402.6 207.352V209.384H408.552V207.352H402.6ZM401.512 206.312H409.704V213.48H401.512V206.312ZM401.304 215.352H409.928V216.456H401.304V215.352ZM400.072 218.664H410.456V219.752H400.072V218.664ZM395.72 206.648H400.712V207.784H395.72V206.648ZM395.896 211.272H400.488V212.408H395.896V211.272ZM395.56 217.4C396.856 217.048 398.776 216.424 400.632 215.8L400.84 216.952C399.096 217.544 397.272 218.152 395.848 218.632L395.56 217.4ZM397.72 207.096H398.872V217.016L397.72 217.24V207.096ZM405.048 206.808H406.104V212.968H406.184V219.16H404.968V212.968H405.048V206.808ZM418.168 206.056H419.496C419.368 208.568 419.128 216.552 412.504 220.152C412.296 219.848 411.896 219.48 411.528 219.208C418.056 215.88 418.056 208.184 418.168 206.056ZM419.448 206.376C419.496 207.624 419.96 216.12 426.552 219.144C426.2 219.416 425.832 219.816 425.64 220.152C418.856 216.904 418.408 207.96 418.296 206.488L419.448 206.376ZM431.272 207.336V209.144H438.744V207.336H431.272ZM430.024 206.28H440.056V210.2H430.024V206.28ZM434.28 213.768H435.56V215.272C435.56 216.952 434.824 219.016 428.824 220.344C428.68 220.088 428.328 219.608 428.04 219.352C433.816 218.232 434.28 216.52 434.28 215.24V213.768ZM435.464 217.976L436.056 217.096C437.96 217.704 440.584 218.664 441.976 219.336L441.368 220.344C440.04 219.672 437.416 218.632 435.464 217.976ZM429.464 211.64H440.68V217.416H439.4V212.76H430.696V217.528H429.464V211.64Z" fill="black"/>
<path d="M208.08 243.26H209.56V246.42C209.56 246.92 209.74 247.02 210.78 247.02C211.26 247.02 213.72 247.02 214.38 247.02C215.24 247.02 215.38 246.78 215.46 244.96C215.78 245.2 216.4 245.42 216.8 245.5C216.62 247.82 216.16 248.38 214.52 248.38C214.06 248.38 211.1 248.38 210.68 248.38C208.6 248.38 208.08 247.98 208.08 246.44V243.26ZM209.42 242.72L210.42 241.9C211.66 242.52 213.1 243.54 213.8 244.34L212.76 245.24C212.1 244.46 210.66 243.4 209.42 242.72ZM216.22 243.76L217.44 243.08C218.92 244.22 220.5 245.94 221.16 247.22L219.84 248C219.24 246.74 217.7 244.98 216.22 243.76ZM205.54 243.18L206.86 243.62C206.34 245.36 205.54 247.06 203.98 248.06L202.78 247.2C204.2 246.32 205.1 244.76 205.54 243.18ZM206.56 232.88V234.7H217.48V232.88H206.56ZM205.16 231.74H218.96V235.84H205.16V231.74ZM211.18 230.22H212.68V242.76H211.18V230.22ZM204.44 237.16H219.6V242H218.16V238.32H205.84V242.04H204.44V237.16ZM205.22 240.22H218.88V241.4H205.22V240.22ZM223.08 236.64H240.9V237.98H223.08V236.64ZM224.84 232.72H236.42V234.06H224.84V232.72ZM228.08 243.34H237.5V244.54H228.08V243.34ZM228.08 246.66H237.5V247.96H228.08V246.66ZM229.98 230.2H231.44V237.36H229.98V230.2ZM238.74 230.9L240.02 231.58C236 236.84 229.98 240.78 223.58 243.24C223.4 242.9 222.92 242.28 222.62 241.98C229.08 239.74 235.04 235.86 238.74 230.9ZM227.26 240.1H238.46V248.54H236.9V241.36H228.76V248.62H227.26V240.1Z" fill="white"/>
<path d="M218.857 24.2859V17.0687C214.464 15.2616 209.536 15.2616 205.143 17.0687V24.2859C209.57 22.6617 214.43 22.6617 218.857 24.2859Z" fill="#BBE2FF"/>
<path d="M226.748 42.3198C226.226 40.6729 225.351 39.1598 224.183 37.8867C222.253 35.809 219.536 34.4084 216.335 33.7724C217.11 33.2581 217.81 32.6376 218.41 31.9278C219.212 30.9887 219.854 29.9235 220.309 28.7753C220.714 27.7981 220.943 26.7576 221.01 25.7016C221.029 25.6206 221.039 25.5378 221.039 25.4547V16.8353C221.024 16.5523 220.927 16.28 220.759 16.0514C220.592 15.8228 220.362 15.6479 220.097 15.5478C214.899 13.4854 209.111 13.4854 203.914 15.5478C203.64 15.6421 203.401 15.8151 203.226 16.0451C203.051 16.2752 202.948 16.5519 202.93 16.8404V25.4598C202.93 25.5987 202.964 25.7324 203.012 25.8593C203.089 26.8398 203.305 27.805 203.667 28.7221C204.117 29.8716 204.751 30.9403 205.544 31.8867C206.165 32.6324 206.895 33.2753 207.704 33.7998C206.881 33.9576 206.065 34.1427 205.263 34.3913C203.065 35.041 201.08 36.262 199.508 37.9296C197.228 40.4341 196.271 43.8507 196.654 48.0661C196.654 48.577 196.853 49.069 197.204 49.4375C197.53 49.7804 197.981 49.9776 198.452 49.9793H225.577V49.9998C226.047 49.9998 226.496 49.8061 226.822 49.4667C227.182 49.0896 227.381 48.589 227.375 48.0661C227.538 46.1282 227.325 44.177 226.748 42.3198ZM204.944 17.3033C209.489 15.5712 214.513 15.5712 219.058 17.3033V24.2204C216.785 23.4452 214.4 23.0513 211.998 23.0547C209.598 23.053 207.215 23.4456 204.944 24.2204V17.3033ZM207.065 30.5856C206.029 29.3701 205.346 27.8936 205.091 26.317C209.552 24.6594 214.459 24.6607 218.919 26.3204C218.37 29.6324 215.475 33.1296 211.959 33.1296C210.185 33.1296 208.445 32.2261 207.065 30.5856Z" fill="#007EFF"/>
<path d="M213.714 20.4439C213.714 20.7868 213.435 21.0662 213.09 21.0679H212.211V21.9473C212.211 22.2902 211.932 22.5696 211.587 22.5713H210.699C210.534 22.5709 210.375 22.505 210.258 22.3881C210.141 22.2711 210.075 22.1127 210.075 21.9473V21.0679H209.194C209.029 21.067 208.871 21.0009 208.754 20.884C208.638 20.7672 208.572 20.609 208.572 20.4439V19.5542C208.572 19.2113 208.851 18.9319 209.196 18.9302H210.077V18.0508C210.077 17.7079 210.356 17.4285 210.699 17.4268H211.587C211.93 17.4268 212.209 17.7062 212.211 18.0508V18.9302H213.092C213.435 18.9319 213.713 19.2096 213.714 19.5542V20.4422V20.4439Z" fill="white"/>
</g>
<defs>
<clipPath id="clip0_2_2">
<rect width="442" height="441" fill="white"/>
</clipPath>
</defs>
</svg>
