<svg width="120" height="107" viewBox="0 0 120 107" fill="none" xmlns="http://www.w3.org/2000/svg">
<rect x="63.5685" y="-3" width="80" height="80" rx="8" transform="rotate(45 63.5685 -3)" fill="#F3F8FE"/>
<path d="M45.3775 53.0553C45.3775 46.9023 38.3136 41.4335 38.0861 41.206L37.8586 40.9785L37.6302 41.206C37.4027 41.4335 30.3389 46.9023 30.3389 53.0553V53.5103C30.3389 57.3839 33.7566 60.5741 37.8577 60.5741C41.9597 60.5741 45.3775 57.3839 45.3775 53.5103V53.0553ZM33.7566 53.0553C33.9841 50.0925 36.7185 46.9023 38.0861 45.5355C39.4529 46.9023 42.1872 50.0925 42.4156 53.0553V53.7378C42.4156 56.0171 40.5921 57.6123 38.0861 57.6123C35.5792 57.6123 33.7566 55.7896 33.7566 53.7386V53.0553Z" fill="#FFB900"/>
<path d="M40.1362 62.1694C39.2254 62.1694 38.542 62.8527 38.542 63.7645C38.542 70.3725 33.3007 74.9295 26.0094 74.9295C24.3329 74.9324 22.6723 74.6043 21.1228 73.9642C19.5733 73.324 18.1655 72.3843 16.9799 71.199C15.7943 70.0136 14.8543 68.6059 14.2138 67.0566C13.5733 65.5073 13.245 63.8468 13.2475 62.1702V61.031C13.475 51.2319 22.8182 41.8895 26.0085 38.9276C26.236 39.1551 26.4635 39.1551 26.691 39.3826C27.8311 40.2944 29.1979 41.662 30.5655 43.2571C31.2489 43.9396 32.1606 43.9396 32.844 43.4846C33.299 43.2571 33.5274 42.8012 33.5274 42.3454C33.5274 41.8904 33.5274 41.4336 33.0724 41.2061C30.5655 38.4717 27.3761 35.5099 27.3761 35.5099C26.6919 35.054 26.0085 35.054 25.3242 35.5099C24.6417 35.9649 10.5131 48.0416 10.5131 61.2585V62.1694C10.5131 71.0559 17.577 78.1206 26.4644 78.1206C36.0342 78.1206 42.1864 72.4235 42.1864 63.7645C41.9589 62.6252 41.0471 62.1694 40.1354 62.1694H40.1362Z" fill="#007EFF"/>
<path d="M26.0094 68.3227C26.9202 68.3227 27.6045 67.6384 27.6045 66.7275V64.4482H29.883C30.7939 64.4482 31.4781 63.7657 31.4781 62.853C31.4781 61.9422 30.7939 61.2588 29.883 61.2588H27.6045V58.9794C27.6045 58.0685 26.9202 57.3843 26.0094 57.3843C25.0976 57.3843 24.4142 58.0685 24.4142 58.9794V61.2588H22.1357C21.224 61.2588 20.5406 61.9413 20.5406 62.853C20.5406 63.7648 21.2231 64.4482 22.1357 64.4482H24.4142V66.7275C24.6417 67.8668 25.3251 68.3218 26.0094 68.3218V68.3227Z" fill="#007EFF"/>
</svg>
