<svg width="793" height="175" viewBox="0 0 793 175" fill="none" xmlns="http://www.w3.org/2000/svg">
<g clip-path="url(#clip0_1_37)">
<path opacity="0.5" d="M791.5 175V86H1.5V175" stroke="url(#paint0_linear_1_37)" stroke-width="2"/>
<mask id="mask0_1_37" style="mask-type:luminance" maskUnits="userSpaceOnUse" x="329" y="0" width="131" height="130">
<path d="M459.5 0H329.5V130H459.5V0Z" fill="white"/>
</mask>
<g mask="url(#mask0_1_37)">
<g opacity="0.2" filter="url(#filter0_f_1_37)">
<path fill-rule="evenodd" clip-rule="evenodd" d="M364.15 89.4377C357.32 93.2741 355.561 102.32 360.454 108.437L361.549 109.806C366.368 115.83 373.663 119.336 381.377 119.336H406.463C415.127 119.336 423.173 114.854 427.733 107.487C432.343 100.04 428.068 90.2822 419.468 88.6229L383.938 81.7684C380.989 81.1996 377.934 81.6945 375.316 83.1654L364.15 89.4377Z" fill="#595656"/>
</g>
<path d="M443.08 83.0017C443.064 83.243 443.048 83.5005 443.032 83.7418C443.016 83.9511 442.984 84.1763 442.951 84.3855C442.919 84.6268 442.887 84.8843 442.839 85.1256C442.791 85.351 442.758 85.5601 442.71 85.7854C442.662 86.0267 442.597 86.2681 442.533 86.5094C442.469 86.7346 442.404 86.9439 442.34 87.1691C442.26 87.4104 442.195 87.6519 442.099 87.8771C442.018 88.0863 441.938 88.3115 441.857 88.5207C441.761 88.7782 441.648 89.0195 441.535 89.277C441.439 89.4861 441.342 89.6953 441.246 89.9044C441.117 90.1459 440.988 90.4032 440.86 90.6447C440.747 90.8376 440.635 91.0469 440.522 91.24C440.345 91.5295 440.168 91.8192 439.975 92.1088C439.862 92.2858 439.75 92.4628 439.621 92.6397C439.396 92.9616 439.17 93.2834 438.929 93.5891C438.816 93.7339 438.704 93.8948 438.591 94.0396C438.543 94.104 438.478 94.1684 438.43 94.2489C438.173 94.5706 437.899 94.8764 437.626 95.1981C437.545 95.2786 437.481 95.3751 437.4 95.4556C437.062 95.8096 436.725 96.1797 436.371 96.5336C436.306 96.598 436.242 96.6624 436.177 96.7267C435.904 96.9842 435.614 97.2577 435.325 97.5151C435.099 97.7243 434.858 97.9334 434.617 98.1427C434.391 98.3357 434.166 98.5288 433.941 98.7058C433.683 98.915 433.426 99.1081 433.169 99.3172C432.927 99.4942 432.686 99.6873 432.429 99.8643C432.155 100.057 431.881 100.25 431.592 100.46C431.334 100.637 431.077 100.814 430.803 100.991C430.514 101.184 430.208 101.377 429.902 101.554C429.532 101.795 429.146 102.02 428.76 102.246C428.02 102.68 427.264 103.082 426.475 103.485C426.25 103.597 426.024 103.71 425.799 103.823C425.204 104.128 424.576 104.402 423.965 104.691C423.756 104.788 423.547 104.884 423.338 104.981C422.533 105.335 421.712 105.673 420.86 105.995C420.715 106.043 420.57 106.107 420.409 106.156C419.701 106.413 418.977 106.67 418.253 106.912C417.963 107.008 417.658 107.105 417.352 107.202C416.95 107.33 416.547 107.443 416.145 107.572C415.807 107.668 415.469 107.765 415.115 107.861C414.713 107.974 414.295 108.086 413.876 108.183C413.539 108.279 413.185 108.36 412.847 108.44C412.428 108.537 412.01 108.633 411.576 108.73C411.222 108.811 410.884 108.891 410.53 108.955C410.095 109.052 409.661 109.132 409.242 109.213C408.904 109.277 408.583 109.341 408.245 109.406C407.312 109.567 406.378 109.728 405.445 109.856C405.316 109.872 405.172 109.888 405.043 109.905C404.222 110.017 403.402 110.114 402.581 110.194C402.259 110.226 401.954 110.259 401.632 110.291C401.101 110.339 400.57 110.387 400.039 110.42C399.701 110.452 399.363 110.468 399.041 110.484C398.494 110.516 397.931 110.548 397.384 110.564C397.078 110.58 396.756 110.596 396.451 110.596C395.968 110.613 395.485 110.613 395.003 110.629C394.665 110.629 394.327 110.645 393.989 110.645C393.474 110.645 392.959 110.645 392.444 110.629C392.139 110.629 391.833 110.629 391.527 110.613C391.06 110.596 390.578 110.58 390.111 110.564C389.773 110.548 389.451 110.548 389.114 110.516C388.599 110.484 388.1 110.452 387.601 110.42C387.311 110.403 387.022 110.387 386.716 110.355C386.105 110.307 385.493 110.243 384.882 110.178C384.689 110.162 384.512 110.146 384.319 110.13C383.53 110.033 382.742 109.937 381.953 109.824C381.825 109.808 381.712 109.792 381.583 109.76C380.908 109.663 380.232 109.551 379.556 109.438C379.282 109.39 379.009 109.341 378.735 109.277C378.22 109.181 377.706 109.084 377.191 108.987C376.933 108.939 376.66 108.875 376.402 108.811C375.839 108.698 375.292 108.569 374.729 108.44C374.423 108.36 374.117 108.279 373.812 108.215C373.313 108.086 372.814 107.958 372.315 107.813C372.026 107.732 371.752 107.652 371.463 107.572C370.674 107.346 369.902 107.105 369.129 106.847C368.985 106.799 368.856 106.767 368.711 106.719C367.826 106.413 366.957 106.091 366.088 105.769C365.734 105.641 365.397 105.496 365.043 105.351C364.769 105.238 364.496 105.126 364.222 105.013C363.836 104.852 363.45 104.675 363.063 104.498C362.806 104.386 362.565 104.273 362.307 104.16C361.889 103.967 361.487 103.758 361.068 103.549C360.859 103.452 360.65 103.34 360.457 103.243C359.845 102.921 359.25 102.6 358.671 102.262C348.904 96.6301 344.029 89.2286 344.061 81.8433L344.029 91.9962C344.013 99.3816 348.888 106.783 358.639 112.415C359.218 112.753 359.813 113.074 360.425 113.396C360.618 113.493 360.827 113.605 361.036 113.702C361.438 113.911 361.857 114.12 362.275 114.313C362.516 114.426 362.774 114.539 363.015 114.651C363.401 114.828 363.788 115.005 364.174 115.166C364.447 115.279 364.721 115.391 364.994 115.504C365.252 115.617 365.525 115.729 365.783 115.826C365.863 115.858 365.96 115.89 366.04 115.922C366.893 116.26 367.778 116.582 368.663 116.872C368.808 116.92 368.936 116.968 369.081 117C369.854 117.258 370.626 117.499 371.414 117.724C371.543 117.757 371.672 117.805 371.801 117.853C371.945 117.902 372.106 117.934 372.251 117.966C372.75 118.111 373.249 118.239 373.747 118.368C374.053 118.449 374.359 118.529 374.665 118.593C375.212 118.722 375.775 118.851 376.338 118.963C376.547 119.012 376.756 119.06 376.965 119.108C377.014 119.124 377.078 119.124 377.142 119.14C377.641 119.237 378.156 119.334 378.671 119.43C378.945 119.478 379.234 119.543 379.508 119.591C380.184 119.704 380.859 119.816 381.535 119.913C381.648 119.929 381.76 119.945 381.873 119.961H381.889C382.677 120.074 383.466 120.17 384.254 120.267C384.463 120.283 384.673 120.299 384.882 120.331C385.461 120.396 386.056 120.46 386.652 120.508C386.668 120.508 386.684 120.508 386.7 120.508C386.99 120.524 387.263 120.54 387.553 120.572C388.052 120.605 388.55 120.653 389.049 120.669C389.387 120.685 389.709 120.701 390.047 120.717C390.513 120.733 390.996 120.766 391.463 120.766C391.495 120.766 391.543 120.766 391.575 120.766C391.849 120.766 392.106 120.766 392.38 120.766C392.895 120.766 393.41 120.782 393.925 120.782C394.262 120.782 394.6 120.766 394.938 120.766C395.421 120.766 395.904 120.749 396.386 120.733C396.483 120.733 396.563 120.733 396.66 120.733C396.885 120.733 397.11 120.701 397.336 120.701C397.899 120.685 398.446 120.653 398.993 120.621C399.331 120.605 399.669 120.572 399.991 120.556C400.522 120.524 401.053 120.476 401.583 120.428C401.777 120.411 401.954 120.396 402.147 120.379C402.275 120.363 402.404 120.347 402.533 120.331C403.353 120.251 404.174 120.154 404.995 120.041C405.123 120.025 405.268 120.009 405.397 119.993C406.33 119.864 407.263 119.704 408.197 119.543C408.277 119.527 408.374 119.511 408.454 119.494C408.695 119.446 408.953 119.398 409.194 119.35C409.629 119.269 410.063 119.189 410.481 119.092C410.835 119.012 411.189 118.947 411.527 118.867C411.946 118.77 412.364 118.674 412.782 118.577C413.136 118.497 413.474 118.4 413.828 118.32C414.247 118.207 414.649 118.111 415.051 117.998C415.389 117.902 415.743 117.805 416.081 117.708C416.483 117.596 416.885 117.467 417.288 117.338C417.465 117.29 417.642 117.242 417.818 117.177C417.947 117.129 418.06 117.081 418.189 117.049C418.913 116.807 419.621 116.566 420.329 116.292C420.473 116.244 420.634 116.18 420.779 116.132C421.616 115.81 422.436 115.472 423.241 115.118C423.45 115.021 423.659 114.925 423.868 114.828C424.496 114.555 425.107 114.265 425.703 113.959C425.928 113.847 426.153 113.734 426.379 113.621C427.151 113.219 427.923 112.817 428.663 112.382C428.873 112.27 429.066 112.141 429.275 112.029C429.468 111.916 429.629 111.803 429.822 111.691C430.128 111.498 430.433 111.321 430.723 111.127C430.996 110.95 431.254 110.773 431.511 110.596C431.801 110.403 432.074 110.21 432.348 110.001C432.605 109.824 432.847 109.631 433.088 109.454C433.346 109.245 433.619 109.052 433.861 108.843C434.086 108.65 434.311 108.473 434.536 108.279C434.778 108.07 435.019 107.861 435.244 107.652C435.341 107.572 435.437 107.475 435.534 107.394C435.727 107.218 435.904 107.041 436.081 106.864C436.145 106.799 436.21 106.735 436.274 106.67C436.628 106.317 436.982 105.962 437.304 105.592C437.384 105.512 437.465 105.415 437.529 105.335C437.803 105.029 438.076 104.708 438.334 104.386C438.382 104.321 438.446 104.241 438.511 104.176C438.543 104.144 438.559 104.112 438.591 104.08C438.688 103.967 438.752 103.839 438.848 103.726C439.09 103.404 439.331 103.098 439.54 102.777C439.669 102.6 439.766 102.423 439.894 102.246C440.087 101.956 440.264 101.666 440.441 101.377C440.49 101.296 440.538 101.216 440.586 101.135C440.651 101.023 440.715 100.894 440.779 100.781C440.908 100.54 441.037 100.283 441.165 100.041C441.262 99.8321 441.359 99.6229 441.455 99.4138C441.568 99.1564 441.664 98.915 441.777 98.6576C441.825 98.545 441.873 98.4322 441.922 98.3196C441.954 98.2231 441.986 98.1105 442.018 98.0139C442.099 97.7726 442.179 97.5312 442.26 97.2899C442.324 97.0646 442.388 96.8555 442.453 96.6301C442.517 96.3888 442.581 96.1475 442.63 95.9061C442.662 95.7774 442.694 95.6487 442.726 95.5199C442.742 95.4394 442.758 95.343 442.774 95.2625C442.823 95.0211 442.855 94.7637 442.887 94.5223C442.919 94.3132 442.952 94.0879 442.968 93.8788C443 93.6373 443 93.38 443.016 93.1385C443.016 92.9938 443.048 92.849 443.048 92.7041C443.048 92.5594 443.048 92.4145 443.048 92.2697L443.08 82.1168C443.129 82.4226 443.096 82.7121 443.08 83.0017Z" fill="url(#paint1_linear_1_37)"/>
<path d="M428.502 61.7151C447.907 72.9138 448.004 91.0637 428.744 102.262C409.468 113.461 378.124 113.461 358.719 102.262C339.33 91.0637 339.218 72.9138 358.494 61.6991C377.77 50.5163 409.114 50.5163 428.502 61.7151Z" fill="url(#paint2_linear_1_37)"/>
<g opacity="0.32508" filter="url(#filter1_f_1_37)">
<path d="M385.998 90.7342C398.543 97.175 411.55 96.8696 415.05 90.0518C418.551 83.2341 411.219 72.4859 398.674 66.045C386.13 59.6042 373.123 59.9097 369.622 66.7274C366.122 73.5451 373.454 84.2933 385.998 90.7342Z" fill="#1F3899" fill-opacity="0.2"/>
</g>
<path d="M374.294 44.5089L381.185 40.5229L384.164 45.5546C384.164 45.5546 377.577 47.0392 377.464 47.0732C377.352 47.1072 374.294 44.5089 374.294 44.5089Z" fill="#9ABFFB"/>
<path d="M385.25 13.6114L390.387 10.3579C390.387 10.3579 394.893 8.66212 400.11 12.1958C405.328 15.7295 408.826 20.8127 409.908 22.666C410.989 24.5194 413.918 29.5737 414.424 36.3784C414.989 43.9537 411.367 46.2449 408.16 48.0345C412.472 51.756 416.902 59.5343 419.323 66.1792C421.744 72.8242 422.684 77.2207 422.684 86.2284C420.416 87.5028 411.545 96.7256 411.545 96.7256L407.957 82.4277L393.104 54.4347C393.104 54.4347 400.068 41.838 401.037 39.1872C402.005 36.5375 391.809 22.9102 391.452 22.3796C391.096 21.8491 379.608 17.1918 379.608 17.1918L385.25 13.6114Z" fill="url(#paint3_linear_1_37)"/>
<path d="M380.01 17.1255C379.631 17.2069 373.968 19.5969 375.215 28.6677C376.572 38.5403 380.899 43.2278 380.899 43.2278C380.899 43.2278 372.824 41.5644 367.715 51.8857C364.864 56.4683 364.669 66.0672 364.669 66.0672L411.49 96.6232C411.49 96.6232 413.221 74.6537 397.329 54.0356C397.329 54.0356 404.394 53.0435 403.552 42.6621C402.71 32.2808 396.407 23.9467 390.289 19.4382C384.599 15.3826 380.879 16.9393 380.01 17.1255Z" fill="url(#paint4_linear_1_37)"/>
<path d="M431.697 54.7803C431.697 58.1114 428.998 60.8105 425.667 60.8105C422.336 60.8105 419.637 58.1114 419.637 54.7803C419.637 51.4492 422.336 48.75 425.667 48.75C428.998 48.75 431.697 51.4492 431.697 54.7803Z" fill="url(#paint5_radial_1_37)"/>
<path d="M358.953 61.0645C358.953 63.2384 357.192 65 355.018 65C352.844 65 351.082 63.2384 351.082 61.0645C351.082 58.8905 352.844 57.1289 355.018 57.1289C357.192 57.1289 358.953 58.8905 358.953 61.0645Z" fill="url(#paint6_radial_1_37)"/>
<path d="M369.617 26.4062C369.617 28.0192 368.31 29.3262 366.697 29.3262C365.084 29.3262 363.777 28.0192 363.777 26.4062C363.777 24.7933 365.084 23.4863 366.697 23.4863C368.31 23.4863 369.617 24.7933 369.617 26.4062Z" fill="url(#paint7_radial_1_37)"/>
</g>
</g>
<defs>
<filter id="filter0_f_1_37" x="257.67" y="-18.4614" width="271.945" height="237.797" filterUnits="userSpaceOnUse" color-interpolation-filters="sRGB">
<feFlood flood-opacity="0" result="BackgroundImageFix"/>
<feBlend mode="normal" in="SourceGraphic" in2="BackgroundImageFix" result="shape"/>
<feGaussianBlur stdDeviation="50" result="effect1_foregroundBlur_1_37"/>
</filter>
<filter id="filter1_f_1_37" x="354.749" y="47.4074" width="75.1754" height="61.9645" filterUnits="userSpaceOnUse" color-interpolation-filters="sRGB">
<feFlood flood-opacity="0" result="BackgroundImageFix"/>
<feBlend mode="normal" in="SourceGraphic" in2="BackgroundImageFix" result="shape"/>
<feGaussianBlur stdDeviation="7" result="effect1_foregroundBlur_1_37"/>
</filter>
<linearGradient id="paint0_linear_1_37" x1="1.5" y1="130.5" x2="791.5" y2="130.5" gradientUnits="userSpaceOnUse">
<stop stop-color="#007EFF"/>
<stop offset="1" stop-color="#007EFF"/>
</linearGradient>
<linearGradient id="paint1_linear_1_37" x1="344.078" y1="101.33" x2="443.126" y2="101.33" gradientUnits="userSpaceOnUse">
<stop stop-color="#75B9FE"/>
<stop offset="1" stop-color="#629EFF"/>
</linearGradient>
<linearGradient id="paint2_linear_1_37" x1="353.825" y1="74.8796" x2="432.097" y2="82.4122" gradientUnits="userSpaceOnUse">
<stop stop-color="#448CFF"/>
<stop offset="1" stop-color="#81B1FF"/>
</linearGradient>
<linearGradient id="paint3_linear_1_37" x1="390.909" y1="9.91127" x2="430.769" y2="94.5978" gradientUnits="userSpaceOnUse">
<stop stop-color="#2387FF"/>
<stop offset="0.167426" stop-color="#5394FF"/>
<stop offset="0.356463" stop-color="#488DFF"/>
<stop offset="0.72643" stop-color="#8EB9FF"/>
<stop offset="1" stop-color="#3481F9"/>
</linearGradient>
<linearGradient id="paint4_linear_1_37" x1="388.107" y1="16.6772" x2="390.625" y2="83.4625" gradientUnits="userSpaceOnUse">
<stop stop-color="#397DFF"/>
<stop offset="1" stop-color="#0070FF"/>
</linearGradient>
<radialGradient id="paint5_radial_1_37" cx="0" cy="0" r="1" gradientUnits="userSpaceOnUse" gradientTransform="translate(422.536 54.7803) scale(7.9804 7.9804)">
<stop stop-color="#F2F7FF"/>
<stop offset="1" stop-color="#99C0FF"/>
</radialGradient>
<radialGradient id="paint6_radial_1_37" cx="0" cy="0" r="1" gradientUnits="userSpaceOnUse" gradientTransform="translate(352.974 61.0645) scale(5.20826)">
<stop stop-color="#F2F7FF"/>
<stop offset="1" stop-color="#99C0FF"/>
</radialGradient>
<radialGradient id="paint7_radial_1_37" cx="0" cy="0" r="1" gradientUnits="userSpaceOnUse" gradientTransform="translate(365.181 26.4063) scale(3.86419 3.86419)">
<stop stop-color="#F2F7FF"/>
<stop offset="1" stop-color="#99C0FF"/>
</radialGradient>
<clipPath id="clip0_1_37">
<rect width="793" height="175" fill="white"/>
</clipPath>
</defs>
</svg>
