<svg width="474" height="228" viewBox="0 0 474 228" fill="none" xmlns="http://www.w3.org/2000/svg">
<g clip-path="url(#clip0_1_55)">
<path d="M113.5 29.3581C146.27 5.33331 234.97 -22.6594 329.5 35" stroke="url(#paint0_linear_1_55)" stroke-width="2"/>
<path d="M126.5 201.144C158.815 223.049 246.283 248.572 339.5 196" stroke="url(#paint1_linear_1_55)" stroke-width="2"/>
<path d="M319.237 22.3243L330.237 34.3243" stroke="#007EFF" stroke-width="2"/>
<path d="M126.237 201.324L137.237 213.324" stroke="#007EFF" stroke-width="2"/>
<path fill-rule="evenodd" clip-rule="evenodd" d="M0.600098 123.257L34.3601 151.007L85.8065 143.326L102.199 106.868L66.3226 79.4033L13.76 87.4159L0.600098 123.257Z" fill="#CADEFE"/>
<path fill-rule="evenodd" clip-rule="evenodd" d="M0.600098 122.743V137.639L32.5849 165.894V150.133L0.600098 122.743Z" fill="#B3CEF6"/>
<path fill-rule="evenodd" clip-rule="evenodd" d="M85.2654 143.47V159.944L32.5847 165.894V150.49L85.2654 143.47Z" fill="#B9D5FF"/>
<path d="M102.199 107.668V123.817L85.2656 160.278V143.872L102.199 107.668Z" fill="#95AFE7"/>
<g opacity="0.13537" filter="url(#filter0_f_1_55)">
<path fill-rule="evenodd" clip-rule="evenodd" d="M13.9792 112.379L37.2045 127.475L68.9004 110.266L41.4398 94.4722L13.9792 112.379Z" fill="#5F6FA5"/>
</g>
<g opacity="0.13537" filter="url(#filter1_f_1_55)">
<path fill-rule="evenodd" clip-rule="evenodd" d="M42.5383 132.18L65.7636 147.276L97.4595 130.067L69.9989 114.273L42.5383 132.18Z" fill="#5F6FA5"/>
</g>
<path d="M35.3154 115.974L13.6296 102.32V80.7046L35.3154 94.3412V115.974Z" fill="#5DA4FF"/>
<path d="M35.3154 115.974L57.0013 102.32V80.7046L35.3154 94.3412V115.974Z" fill="url(#paint2_linear_1_55)"/>
<path d="M57.0013 80.7044L35.3154 94.341L13.6296 80.7044L35.3154 69.0625L57.0013 80.7044Z" fill="url(#paint3_linear_1_55)"/>
<path d="M63.3437 111.557L46.3794 100.54C46.5011 99.3652 46.8256 98.3722 47.3526 97.5606C47.8797 96.749 48.6321 96.0838 49.6099 95.5652L66.5743 106.582L63.3437 111.557Z" fill="#1960D1"/>
<path d="M64.973 139.736L43.2871 126.082V104.466L64.973 118.103V139.736Z" fill="#5DA4FF"/>
<path d="M64.9729 139.736L86.6587 126.082V104.466L64.9729 118.103V139.736Z" fill="url(#paint4_linear_1_55)"/>
<path d="M86.6588 104.466L64.973 118.103L43.2871 104.466L64.973 92.8242L86.6588 104.466Z" fill="url(#paint5_linear_1_55)"/>
<path d="M38.3441 62.6958V82.9235C37.2927 83.4611 36.2832 83.7299 35.3154 83.7299C34.3477 83.7299 33.3801 83.4611 32.4126 82.9235V62.6958H38.3441Z" fill="#1960D1"/>
<path d="M35.3154 86.7114L13.6296 73.0576V51.4419L35.3154 65.0785V86.7114Z" fill="#5DA4FF"/>
<path d="M35.3154 86.7114L57.0013 73.0576V51.4419L35.3154 65.0785V86.7114Z" fill="url(#paint6_linear_1_55)"/>
<path d="M57.0013 51.4417L35.3154 65.0783L13.6296 51.4417L35.3154 39.7998L57.0013 51.4417Z" fill="url(#paint7_linear_1_55)"/>
<path d="M408.075 168.395L342.492 127.16V122.758L408.075 163.941V168.395Z" fill="#B6D5FF"/>
<path d="M408.075 168.395L473.659 127.16V122.758L408.075 163.941V168.395Z" fill="#95AFE7"/>
<path d="M473.659 122.758L408.075 163.941L342.492 122.758L408.075 87.5986L473.659 122.758Z" fill="url(#paint8_linear_1_55)"/>
<path d="M406.499 149.566L364.197 123.202V50.8745L406.499 77.206V149.566Z" fill="#5DA4FF"/>
<mask id="mask0_1_55" style="mask-type:luminance" maskUnits="userSpaceOnUse" x="364" y="50" width="43" height="100">
<path d="M406.499 149.566L364.197 123.202V50.8745L406.499 77.206V149.566Z" fill="white"/>
</mask>
<g mask="url(#mask0_1_55)">
<g filter="url(#filter2_f_1_55)">
<path d="M406.499 149.566L364.197 123.202V50.8745L406.499 77.206V149.566Z" fill="url(#paint9_linear_1_55)"/>
</g>
</g>
<path d="M406.499 149.566L448.8 123.202V50.8745L406.499 77.206V149.566Z" fill="url(#paint10_linear_1_55)"/>
<path d="M448.8 50.8742L406.499 77.2057L364.197 50.8742L406.499 28.3945L448.8 50.8742Z" fill="url(#paint11_linear_1_55)"/>
<path d="M413.528 97.4656L421.42 92.1937V77.731L413.528 82.9963V97.4656Z" fill="url(#paint12_linear_1_55)"/>
<path d="M413.528 121.147L421.42 115.875V101.413L413.528 106.678V121.147Z" fill="url(#paint13_linear_1_55)"/>
<path d="M425.367 89.5721L433.26 84.3001V69.8374L425.367 75.1027V89.5721Z" fill="url(#paint14_linear_1_55)"/>
<path d="M425.367 113.254L433.26 107.982V93.519L425.367 98.7843V113.254Z" fill="url(#paint15_linear_1_55)"/>
<path d="M437.206 81.678L445.099 76.4061V61.9434L437.206 67.2087V81.678Z" fill="url(#paint16_linear_1_55)"/>
<path d="M437.206 105.36L445.099 100.088V85.6255L437.206 90.8908V105.36Z" fill="url(#paint17_linear_1_55)"/>
<path opacity="0.543132" d="M376.037 81.678L368.144 76.4061V61.9434L376.037 67.2087V81.678Z" fill="url(#paint18_linear_1_55)"/>
<path opacity="0.543132" d="M376.037 105.36L368.144 100.088V85.6255L376.037 90.8908V105.36Z" fill="url(#paint19_linear_1_55)"/>
<path opacity="0.543132" d="M387.876 89.5721L379.983 84.3001V69.8374L387.876 75.1027V89.5721Z" fill="url(#paint20_linear_1_55)"/>
<path opacity="0.543132" d="M387.876 113.254L379.983 107.982V93.519L387.876 98.7843V113.254Z" fill="url(#paint21_linear_1_55)"/>
<path opacity="0.543132" d="M399.715 97.4656L391.822 92.1937V77.731L399.715 82.9963V97.4656Z" fill="url(#paint22_linear_1_55)"/>
<path opacity="0.543132" d="M399.715 121.147L391.822 115.875V101.413L399.715 106.678V121.147Z" fill="url(#paint23_linear_1_55)"/>
<g opacity="0.236003" filter="url(#filter3_f_1_55)">
<path fill-rule="evenodd" clip-rule="evenodd" d="M404.129 149.566L421.42 151.521L460.969 125.769L444.853 123.201L404.129 149.566Z" fill="#5F6FA5"/>
</g>
</g>
<defs>
<filter id="filter0_f_1_55" x="11.9792" y="92.4722" width="58.9211" height="37.0028" filterUnits="userSpaceOnUse" color-interpolation-filters="sRGB">
<feFlood flood-opacity="0" result="BackgroundImageFix"/>
<feBlend mode="normal" in="SourceGraphic" in2="BackgroundImageFix" result="shape"/>
<feGaussianBlur stdDeviation="1" result="effect1_foregroundBlur_1_55"/>
</filter>
<filter id="filter1_f_1_55" x="40.5383" y="112.273" width="58.9211" height="37.003" filterUnits="userSpaceOnUse" color-interpolation-filters="sRGB">
<feFlood flood-opacity="0" result="BackgroundImageFix"/>
<feBlend mode="normal" in="SourceGraphic" in2="BackgroundImageFix" result="shape"/>
<feGaussianBlur stdDeviation="1" result="effect1_foregroundBlur_1_55"/>
</filter>
<filter id="filter2_f_1_55" x="336.197" y="22.8745" width="98.302" height="154.691" filterUnits="userSpaceOnUse" color-interpolation-filters="sRGB">
<feFlood flood-opacity="0" result="BackgroundImageFix"/>
<feBlend mode="normal" in="SourceGraphic" in2="BackgroundImageFix" result="shape"/>
<feGaussianBlur stdDeviation="14" result="effect1_foregroundBlur_1_55"/>
</filter>
<filter id="filter3_f_1_55" x="402.129" y="121.201" width="60.84" height="32.32" filterUnits="userSpaceOnUse" color-interpolation-filters="sRGB">
<feFlood flood-opacity="0" result="BackgroundImageFix"/>
<feBlend mode="normal" in="SourceGraphic" in2="BackgroundImageFix" result="shape"/>
<feGaussianBlur stdDeviation="1" result="effect1_foregroundBlur_1_55"/>
</filter>
<linearGradient id="paint0_linear_1_55" x1="113.5" y1="18" x2="329.5" y2="18" gradientUnits="userSpaceOnUse">
<stop stop-color="#007EFF" stop-opacity="0.1"/>
<stop offset="1" stop-color="#007EFF"/>
</linearGradient>
<linearGradient id="paint1_linear_1_55" x1="126.5" y1="211.5" x2="339.5" y2="211.5" gradientUnits="userSpaceOnUse">
<stop stop-color="#007EFF"/>
<stop offset="1" stop-color="#007EFF" stop-opacity="0.1"/>
</linearGradient>
<linearGradient id="paint2_linear_1_55" x1="1312.1" y1="1012.28" x2="263.067" y2="3112.78" gradientUnits="userSpaceOnUse">
<stop stop-color="#3E83EE"/>
<stop offset="1" stop-color="#5986F0"/>
</linearGradient>
<linearGradient id="paint3_linear_1_55" x1="3506.51" y1="989.585" x2="920.951" y2="3071.77" gradientUnits="userSpaceOnUse">
<stop stop-color="#459FFF"/>
<stop offset="1" stop-color="#4B95F2"/>
</linearGradient>
<linearGradient id="paint4_linear_1_55" x1="1341.75" y1="1036.04" x2="292.725" y2="3136.54" gradientUnits="userSpaceOnUse">
<stop stop-color="#3E83EE"/>
<stop offset="1" stop-color="#5986F0"/>
</linearGradient>
<linearGradient id="paint5_linear_1_55" x1="3536.17" y1="1013.35" x2="950.609" y2="3095.53" gradientUnits="userSpaceOnUse">
<stop stop-color="#459FFF"/>
<stop offset="1" stop-color="#4B95F2"/>
</linearGradient>
<linearGradient id="paint6_linear_1_55" x1="1312.1" y1="983.016" x2="263.067" y2="3083.51" gradientUnits="userSpaceOnUse">
<stop stop-color="#3E83EE"/>
<stop offset="1" stop-color="#5986F0"/>
</linearGradient>
<linearGradient id="paint7_linear_1_55" x1="3506.51" y1="960.322" x2="920.951" y2="3042.51" gradientUnits="userSpaceOnUse">
<stop stop-color="#459FFF"/>
<stop offset="1" stop-color="#4B95F2"/>
</linearGradient>
<linearGradient id="paint8_linear_1_55" x1="9798.08" y1="2792.36" x2="6905.15" y2="6284.52" gradientUnits="userSpaceOnUse">
<stop stop-color="#A5BFFF"/>
<stop offset="1" stop-color="#B5D7FF"/>
</linearGradient>
<linearGradient id="paint9_linear_1_55" x1="2479.26" y1="50.8745" x2="2479.26" y2="9920.06" gradientUnits="userSpaceOnUse">
<stop stop-color="#488CFE"/>
<stop offset="1" stop-color="#50A4FE"/>
</linearGradient>
<linearGradient id="paint10_linear_1_55" x1="3616.63" y1="-1225.01" x2="-1766.28" y2="6582.26" gradientUnits="userSpaceOnUse">
<stop stop-color="#397FEB"/>
<stop offset="1" stop-color="#386EEB"/>
</linearGradient>
<linearGradient id="paint11_linear_1_55" x1="7177.54" y1="1819.19" x2="2130.37" y2="5842.69" gradientUnits="userSpaceOnUse">
<stop stop-color="#459FFF"/>
<stop offset="1" stop-color="#4B95F2"/>
</linearGradient>
<linearGradient id="paint12_linear_1_55" x1="770.795" y1="1856.55" x2="1325.73" y2="475.285" gradientUnits="userSpaceOnUse">
<stop stop-color="#F6F7FC" stop-opacity="0.394422"/>
<stop offset="1" stop-color="#93A5EB" stop-opacity="0.394422"/>
</linearGradient>
<linearGradient id="paint13_linear_1_55" x1="770.795" y1="1880.23" x2="1325.73" y2="498.967" gradientUnits="userSpaceOnUse">
<stop stop-color="#F6F7FC" stop-opacity="0.394422"/>
<stop offset="1" stop-color="#93A5EB" stop-opacity="0.394422"/>
</linearGradient>
<linearGradient id="paint14_linear_1_55" x1="782.635" y1="1848.65" x2="1337.57" y2="467.391" gradientUnits="userSpaceOnUse">
<stop stop-color="#F6F7FC" stop-opacity="0.394422"/>
<stop offset="1" stop-color="#93A5EB" stop-opacity="0.394422"/>
</linearGradient>
<linearGradient id="paint15_linear_1_55" x1="782.635" y1="1872.34" x2="1337.57" y2="491.073" gradientUnits="userSpaceOnUse">
<stop stop-color="#F6F7FC" stop-opacity="0.394422"/>
<stop offset="1" stop-color="#93A5EB" stop-opacity="0.394422"/>
</linearGradient>
<linearGradient id="paint16_linear_1_55" x1="794.474" y1="1840.76" x2="1349.41" y2="459.497" gradientUnits="userSpaceOnUse">
<stop stop-color="#F6F7FC" stop-opacity="0.394422"/>
<stop offset="1" stop-color="#93A5EB" stop-opacity="0.394422"/>
</linearGradient>
<linearGradient id="paint17_linear_1_55" x1="794.474" y1="1864.44" x2="1349.41" y2="483.18" gradientUnits="userSpaceOnUse">
<stop stop-color="#F6F7FC" stop-opacity="0.394422"/>
<stop offset="1" stop-color="#93A5EB" stop-opacity="0.394422"/>
</linearGradient>
<linearGradient id="paint18_linear_1_55" x1="825.91" y1="2035.41" x2="259.645" y2="661.698" gradientUnits="userSpaceOnUse">
<stop stop-color="#77A2E7"/>
<stop offset="1" stop-color="#0B46A3"/>
</linearGradient>
<linearGradient id="paint19_linear_1_55" x1="825.91" y1="2059.09" x2="259.645" y2="685.38" gradientUnits="userSpaceOnUse">
<stop stop-color="#77A2E7"/>
<stop offset="1" stop-color="#0B46A3"/>
</linearGradient>
<linearGradient id="paint20_linear_1_55" x1="837.75" y1="2043.3" x2="271.488" y2="669.591" gradientUnits="userSpaceOnUse">
<stop stop-color="#77A2E7"/>
<stop offset="1" stop-color="#0B46A3"/>
</linearGradient>
<linearGradient id="paint21_linear_1_55" x1="837.75" y1="2066.98" x2="271.488" y2="693.273" gradientUnits="userSpaceOnUse">
<stop stop-color="#77A2E7"/>
<stop offset="1" stop-color="#0B46A3"/>
</linearGradient>
<linearGradient id="paint22_linear_1_55" x1="849.589" y1="2051.2" x2="283.327" y2="677.485" gradientUnits="userSpaceOnUse">
<stop stop-color="#77A2E7"/>
<stop offset="1" stop-color="#0B46A3"/>
</linearGradient>
<linearGradient id="paint23_linear_1_55" x1="849.589" y1="2074.88" x2="283.327" y2="701.166" gradientUnits="userSpaceOnUse">
<stop stop-color="#77A2E7"/>
<stop offset="1" stop-color="#0B46A3"/>
</linearGradient>
<clipPath id="clip0_1_55">
<rect width="474" height="228" fill="white"/>
</clipPath>
</defs>
</svg>
